<svg width="14" height="28" class="nav-logo__symbol" viewBox="0 0 14 28" fill="none" xmlns="http://www.w3.org/2000/svg"><path fill-rule="evenodd" clip-rule="evenodd" d="M13.1294 0.82959V27.1668C6.45708 27.1668 0.808594 21.1398 0.808594 14C0.808594 6.86043 6.45708 0.82959 13.1294 0.82959Z" fill="currentColor"></path></svg><svg width="80" height="28" class="nav-logo__name" viewBox="0 0 80 28" fill="none" xmlns="http://www.w3.org/2000/svg"><path d="M37.3179 15.3454L34.5109 7.7477H29.4686L34.9007 20.5465L32.6395 26.7555H37.0839L44.3616 7.7477H39.9172L37.3179 15.3454Z" fill="currentColor"></path><path d="M79.6111 11.9685C79.2993 8.56452 76.9599 7.36635 73.607 7.36635C70.4621 7.36635 67.7852 8.89147 67.7852 12.0502C67.7852 15.0185 69.3187 16.1352 72.9572 16.6253C74.8286 16.8976 75.4786 17.2243 75.4786 17.9053C75.4786 18.6133 74.9587 19.0761 73.815 19.0761C72.4895 19.0761 72.0475 18.5042 71.8917 17.4695H67.6031C67.707 20.6283 69.9684 22.3166 73.841 22.3166C77.6097 22.3166 80.0009 20.7917 80.0009 17.4151C80.0009 14.3651 78.1815 13.3302 74.4128 12.84C72.7495 12.6221 72.1257 12.3499 72.1257 11.6692C72.1257 11.0155 72.6453 10.5525 73.6592 10.5525C74.7247 10.5525 75.2187 11.0155 75.4004 11.9685H79.6111Z" fill="currentColor"></path><path d="M66.2263 21.9899V7.7477H61.5739V21.9899H66.2263Z" fill="currentColor"></path><path d="M66.4603 3.88062C66.4603 2.43752 65.3428 1.34814 63.8872 1.34814C62.4316 1.34814 61.3401 2.43752 61.3401 3.88062C61.3401 5.32401 62.4316 6.38605 63.8872 6.38605C65.3428 6.38605 66.4603 5.32401 66.4603 3.88062Z" fill="currentColor"></path><path fill-rule="evenodd" clip-rule="evenodd" d="M9.10755 7.36635C12.2787 7.36635 14.8517 9.87177 14.8517 14.7462V14.9641C14.8517 19.8658 12.2787 22.3166 9.08159 22.3166C7.02846 22.3166 5.54689 21.3092 4.87117 19.8932V26.7555H0.21875V7.7477H4.87117V9.87177C5.65076 8.51012 7.05442 7.36635 9.10755 7.36635ZM4.74105 14.7191C4.74105 12.3225 5.75492 11.0426 7.44422 11.0426C9.08159 11.0426 10.1214 12.2411 10.1214 14.7462V14.9641C10.1214 17.306 9.18574 18.5859 7.44422 18.5859C5.75492 18.5859 4.74105 17.3604 4.74105 14.9367V14.7191Z" fill="currentColor"></path><path fill-rule="evenodd" clip-rule="evenodd" d="M22.9847 7.36635C26.7274 7.36635 29.1184 8.97322 29.1184 12.7583V21.9899H24.5961V20.3286C23.9463 21.3636 22.7507 22.3166 20.5674 22.3166C18.1242 22.3166 15.9669 21.064 15.9669 18.0414C15.9669 14.6918 18.6701 13.3845 23.1924 13.3845H24.4919V13.0579C24.4919 11.6962 24.18 10.7977 22.6987 10.7977C21.4252 10.7977 20.9572 11.5874 20.8534 12.486H16.4866C16.6946 9.05467 19.2676 7.36635 22.9847 7.36635ZM23.2703 16.1352H24.4919V17.0064C24.4919 18.2319 23.5043 19.0217 22.1788 19.0217C21.0871 19.0217 20.5674 18.5042 20.5674 17.6874C20.5674 16.5163 21.399 16.1352 23.2703 16.1352Z" fill="currentColor"></path><path fill-rule="evenodd" clip-rule="evenodd" d="M50.1978 1.48428V9.87177C50.9774 8.51012 52.3811 7.36635 54.4345 7.36635C57.6053 7.36635 60.1784 9.87177 60.1784 14.7462V14.9641C60.1784 19.8658 57.6053 22.3166 54.4085 22.3166C52.3811 22.3166 50.8735 21.3092 50.1978 19.7841V21.9899H45.5454V1.48428H50.1978ZM50.068 14.7191C50.068 12.3225 51.0816 11.0426 52.7709 11.0426C54.4085 11.0426 55.4481 12.2411 55.4481 14.7462V14.9641C55.4481 17.306 54.5124 18.5859 52.7709 18.5859C51.0816 18.5859 50.068 17.3604 50.068 14.9367V14.7191Z" fill="currentColor"></path></svg>