<svg width="137" height="32" viewBox="0 0 137 32" fill="none" xmlns="http://www.w3.org/2000/svg">
<g id="logo">
<path id="Vector" fill-rule="evenodd" clip-rule="evenodd" d="M18.7486 11.2574C19.4225 11.2574 20.081 11.0577 20.6413 10.6833C21.2014 10.3091 21.6381 9.77703 21.8959 9.15462C22.1537 8.53221 22.2212 7.8471 22.0898 7.18643C21.9582 6.52555 21.6339 5.91857 21.1575 5.4422C20.6809 4.96582 20.074 4.6413 19.4133 4.50988C18.7524 4.37847 18.0675 4.44598 17.4451 4.7038C16.8227 4.96162 16.2906 5.39812 15.9162 5.95843C15.542 6.51854 15.3421 7.17721 15.3421 7.8509C15.3421 8.29823 15.4302 8.74135 15.6013 9.15462C15.7726 9.56789 16.0236 9.9435 16.3399 10.2598C16.6562 10.5761 17.0316 10.8271 17.4451 10.9982C17.8584 11.1695 18.3013 11.2574 18.7486 11.2574ZM8.30347 26.5995C6.6612 26.5995 5.0558 26.1125 3.69038 25.2002C2.32479 24.2878 1.26052 22.9911 0.632062 21.4738C0.00360267 19.9565 -0.160843 18.287 0.159556 16.6762C0.479936 15.0656 1.27076 13.586 2.43202 12.4247C3.59323 11.2636 5.07283 10.4728 6.68344 10.1524C8.29425 9.83192 9.96376 9.99638 11.481 10.6248C12.9983 11.2534 14.295 12.3175 15.2075 13.6832C16.1197 15.0486 16.6067 16.654 16.6067 18.2962C16.6069 19.3866 16.3922 20.4664 15.9749 21.4738C15.5576 22.4812 14.9458 23.3967 14.1748 24.1678C13.4037 24.9386 12.4885 25.5504 11.481 25.9677C10.4736 26.385 9.39383 26.5997 8.30347 26.5995ZM127.347 24.8935L122.225 13.1297H125.655L129.152 21.5665L133.194 13.1297H136.567L128.596 29.3333H125.167L127.347 24.8935ZM114.877 22.4578C115.179 22.3889 115.471 22.2801 115.745 22.1343C116.01 21.9932 116.256 21.8198 116.478 21.6176C116.699 21.4149 116.89 21.1817 117.045 20.9249C117.208 20.6553 117.334 20.365 117.42 20.0619C117.513 19.7314 117.559 19.3892 117.556 19.0457C117.559 18.6985 117.514 18.3525 117.42 18.018C117.334 17.7149 117.208 17.4248 117.045 17.155C116.889 16.8972 116.698 16.6622 116.478 16.4567C116.259 16.2527 116.012 16.0809 115.745 15.9456C115.469 15.8068 115.178 15.702 114.877 15.6335C114.56 15.5608 114.236 15.5247 113.911 15.5255C113.588 15.5245 113.267 15.5606 112.952 15.6335C112.654 15.702 112.366 15.807 112.094 15.9456C111.829 16.0827 111.582 16.2545 111.362 16.4567C111.139 16.6612 110.946 16.8962 110.789 17.155C110.626 17.4242 110.502 17.7147 110.42 18.018C110.33 18.3531 110.286 18.6987 110.289 19.0457C110.286 19.3888 110.33 19.7306 110.42 20.0619C110.502 20.3654 110.626 20.6559 110.789 20.9249C110.945 21.1827 111.138 21.4161 111.362 21.6176C111.585 21.8182 111.831 21.9914 112.094 22.1343C112.364 22.2801 112.653 22.3889 112.952 22.4578C113.266 22.5307 113.588 22.567 113.911 22.5658C114.236 22.5668 114.56 22.5305 114.877 22.4578ZM111.419 25.0923C110.893 24.9585 110.387 24.7561 109.914 24.4905C108.993 23.9725 108.233 23.21 107.717 22.2875C107.451 21.8105 107.249 21.3009 107.115 20.7717C106.835 19.6342 106.835 18.4459 107.115 17.3084C107.248 16.7806 107.451 16.2728 107.717 15.7982C108.235 14.8789 108.995 14.1191 109.914 13.601C110.387 13.3352 110.893 13.1329 111.419 12.9991C111.981 12.8566 112.559 12.7859 113.139 12.7891C113.452 12.7883 113.765 12.8073 114.076 12.8458C114.362 12.8813 114.645 12.9382 114.922 13.0161C115.179 13.0892 115.431 13.1781 115.677 13.2829C115.907 13.3809 116.129 13.4967 116.341 13.6293C116.541 13.7541 116.727 13.8987 116.898 14.0608C117.057 14.2122 117.205 14.3755 117.341 14.5492V13.1297H120.599V24.9617H117.341V23.5424C117.132 23.8038 116.894 24.04 116.631 24.2463C116.34 24.4747 116.021 24.6654 115.683 24.814C115.306 24.9795 114.912 25.1015 114.507 25.1774C114.056 25.2627 113.598 25.3046 113.139 25.3024C112.559 25.3054 111.981 25.2349 111.419 25.0923ZM99.5877 16.1273C100.054 16.1359 100.52 16.0825 100.973 15.9685C101.326 15.8793 101.655 15.7147 101.938 15.4859C102.194 15.2727 102.389 14.9969 102.506 14.6854C102.633 14.3322 102.695 13.959 102.688 13.5838C102.695 13.2106 102.633 12.8392 102.506 12.488C102.389 12.1799 102.193 11.9079 101.938 11.6989C101.654 11.4736 101.325 11.3109 100.973 11.222C100.52 11.1082 100.054 11.0547 99.5877 11.0631H96.3855V16.1273H99.5877ZM93.0131 8.26978H99.9057C100.988 8.26978 101.927 8.4022 102.722 8.66723C103.517 8.93206 104.171 9.29925 104.686 9.76861C105.198 10.234 105.593 10.8137 105.839 11.4606C106.096 12.1425 106.226 12.8662 106.219 13.5952C106.227 14.3226 106.098 15.0448 105.839 15.7243C105.589 16.3657 105.195 16.9408 104.686 17.4048C104.171 17.8782 103.517 18.2472 102.722 18.512C101.927 18.7772 100.988 18.9096 99.9057 18.9094H96.3855V24.9617H93.0131V8.26978ZM78.5316 13.1297H81.7678V14.549C81.9676 14.2735 82.2043 14.0271 82.4718 13.8166C82.7548 13.5946 83.0635 13.4077 83.3915 13.2603C83.7529 13.0986 84.1323 12.9804 84.5215 12.9083C84.9538 12.827 85.3929 12.7871 85.8328 12.7891C86.5179 12.7793 87.1992 12.8947 87.8427 13.1297C88.4162 13.341 88.9357 13.6764 89.3643 14.1119C89.7951 14.5632 90.1206 15.1041 90.3181 15.696C90.5461 16.3763 90.6575 17.0905 90.6474 17.8081V24.9617H87.4112V18.6482C87.419 18.1867 87.3539 17.7269 87.2183 17.2856C87.1059 16.9214 86.9184 16.5849 86.6676 16.2978C86.4264 16.0312 86.1245 15.8266 85.7876 15.7016C85.4055 15.5634 85.0015 15.4961 84.5952 15.5029C84.1872 15.4965 83.7813 15.5638 83.3973 15.7016C83.0581 15.8256 82.754 16.0302 82.5116 16.2978C82.2606 16.5849 82.0731 16.9214 81.9607 17.2856C81.8251 17.7269 81.76 18.1867 81.7678 18.6482V24.9617H78.5316V13.1297ZM70.5681 22.4237C70.877 22.3492 71.1761 22.2386 71.4593 22.0944C71.729 21.9568 71.9759 21.7787 72.1917 21.5665C72.4056 21.3572 72.5907 21.1204 72.7426 20.8624C72.8972 20.5968 73.012 20.3099 73.0831 20.0108C73.1605 19.6873 73.1985 19.3556 73.1967 19.023C73.1987 18.6921 73.1607 18.3624 73.0831 18.0406C72.9399 17.4481 72.6308 16.9084 72.1917 16.4851C71.9729 16.2748 71.7265 16.0953 71.4593 15.9514C71.1785 15.8006 70.8788 15.688 70.5681 15.6165C70.2309 15.539 69.8862 15.5009 69.5404 15.5029C69.1984 15.5013 68.8573 15.5394 68.5241 15.6165C68.215 15.6874 67.917 15.8 67.6383 15.9514C67.3735 16.0963 67.1291 16.2758 66.9117 16.4851C66.6976 16.6912 66.5157 16.9286 66.3723 17.189C66.2258 17.4567 66.1114 17.7407 66.0317 18.035C65.946 18.3573 65.9039 18.6895 65.9067 19.023C65.9049 19.3564 65.9468 19.6885 66.0317 20.0108C66.1094 20.3077 66.2238 20.594 66.3723 20.8624C66.5175 21.1218 66.6992 21.3588 66.9117 21.5665C67.1263 21.7777 67.3713 21.9558 67.6383 22.0946C67.9194 22.2392 68.2169 22.3498 68.5241 22.4239C68.8567 22.5047 69.198 22.5447 69.5404 22.5431C69.8866 22.5451 70.2315 22.5051 70.5681 22.4237ZM67.6327 25.0867C67.0488 24.9506 66.4828 24.7467 65.9464 24.4791C65.4419 24.2275 64.974 23.9085 64.5555 23.5309C64.1499 23.1639 63.7983 22.7417 63.5108 22.2763C63.2195 21.8025 62.996 21.2903 62.8465 20.7546C62.5362 19.621 62.5362 18.4249 62.8465 17.2914C62.9952 16.7571 63.2189 16.2467 63.5108 15.7754C63.8003 15.3116 64.1517 14.8893 64.5555 14.5207C64.9728 14.1401 65.4409 13.819 65.9464 13.567C66.4828 13.2993 67.0488 13.0954 67.6327 12.9594C68.896 12.6717 70.2075 12.6717 71.4707 12.9594C72.0513 13.0942 72.6136 13.2981 73.1456 13.567C73.6489 13.8228 74.1164 14.1435 74.5365 14.5207C74.9466 14.8881 75.3039 15.3102 75.5982 15.7754C75.8935 16.2457 76.1191 16.7563 76.2683 17.2914C76.5786 18.4249 76.5786 19.621 76.2683 20.7546C76.1185 21.2911 75.8929 21.8035 75.5982 22.2763C75.3059 22.7429 74.9484 23.1653 74.5365 23.5309C74.1154 23.9051 73.6479 24.2239 73.1456 24.4791C72.6154 24.7473 72.0551 24.9512 71.4763 25.0867C70.2113 25.3741 68.8978 25.3741 67.6327 25.0867ZM55.0046 22.4237C55.3135 22.3492 55.6126 22.2386 55.8959 22.0944C56.1655 21.9568 56.4125 21.7787 56.6283 21.5665C56.8422 21.357 57.0273 21.1204 57.1791 20.8624C57.3338 20.597 57.4486 20.3099 57.5197 20.0108C57.597 19.6873 57.6351 19.3556 57.6333 19.023C57.6353 18.6921 57.5972 18.3624 57.5197 18.0406C57.3765 17.4479 57.0674 16.9084 56.6283 16.4851C56.4095 16.2748 56.1631 16.0953 55.8959 15.9514C55.615 15.8006 55.3153 15.688 55.0046 15.6165C54.6675 15.539 54.3227 15.5009 53.977 15.5029C53.635 15.5013 53.2938 15.5394 52.9607 15.6165C52.6516 15.6874 52.3535 15.8 52.0749 15.9514C51.81 16.0963 51.5656 16.2758 51.3483 16.4851C51.1341 16.6912 50.9522 16.9286 50.8088 17.189C50.6626 17.4567 50.5482 17.7407 50.4683 18.035C50.3825 18.3573 50.3405 18.6895 50.3433 19.023C50.3415 19.3564 50.3833 19.6885 50.4683 20.0108C50.546 20.3077 50.6606 20.5938 50.8088 20.8624C50.954 21.1218 51.1357 21.3588 51.3483 21.5665C51.5628 21.7777 51.8078 21.9556 52.0749 22.0944C52.3559 22.2392 52.6534 22.3498 52.9607 22.4237C53.2932 22.5047 53.6346 22.5445 53.977 22.5431C54.3231 22.5451 54.6681 22.5051 55.0046 22.4237ZM52.0693 25.0867C51.4853 24.9506 50.9194 24.7469 50.3831 24.4791C49.8785 24.2277 49.4105 23.9085 48.9921 23.5309C48.5864 23.1639 48.2348 22.7417 47.9474 22.2763C47.6561 21.8025 47.4325 21.2903 47.2831 20.7546C46.9728 19.6212 46.9728 18.4249 47.2831 17.2914C47.4319 16.7571 47.6555 16.2469 47.9474 15.7756C48.2368 15.3116 48.5884 14.8895 48.9921 14.5207C49.4095 14.1401 49.8775 13.8192 50.3831 13.567C50.9196 13.2993 51.4855 13.0954 52.0693 12.9594C53.3325 12.6717 54.644 12.6717 55.9073 12.9594C56.4878 13.0942 57.0501 13.2981 57.5822 13.567C58.0854 13.8228 58.5532 14.1435 58.9733 14.5207C59.3831 14.8881 59.7405 15.3104 60.0348 15.7756C60.3301 16.2459 60.5558 16.7563 60.7049 17.2914C61.0152 18.4249 61.0152 19.6212 60.7049 20.7546C60.555 21.2911 60.3295 21.8035 60.0348 22.2763C59.7425 22.7429 59.3851 23.1655 58.9733 23.5309C58.552 23.9053 58.0844 24.2239 57.5822 24.4791C57.0519 24.7473 56.4916 24.9512 55.9129 25.0867C54.6478 25.3741 53.3343 25.3741 52.0693 25.0867ZM26.527 8.26978H29.9336L35.7586 17.172L41.6065 8.26978H45.0132V24.9617H41.6405V13.5157L36.8033 20.8965H34.7367L29.8995 13.5157V24.9617H26.527V8.26978Z" fill="black"/>
</g>
</svg>
