<svg width="284" height="126" viewBox="0 0 284 126" fill="none" xmlns="http://www.w3.org/2000/svg">
<path fill-rule="evenodd" clip-rule="evenodd" d="M40.3807 53.2878C39.5189 53.6854 38.3731 54.4908 37.8345 55.0776L36.8551 56.1443L36.6593 54.8355L36.4634 53.5268L33.2317 53.4132L30 53.2992V55.078V56.8564H31.5594H33.1189L33.2243 65.5722L33.3296 74.2881H34.8965H36.4634L36.6593 66.9703C36.8367 60.3333 36.9315 59.5499 37.6746 58.5483C38.1255 57.9411 39.077 57.0476 39.7892 56.5626C40.6529 55.9746 41.6643 55.6812 42.8266 55.6812C43.7847 55.6812 45.0566 55.9695 45.6532 56.3221C46.2498 56.6743 47.0701 57.5118 47.4763 58.1828C48.1093 59.2279 48.2433 60.4693 48.411 66.8453L48.6068 74.2881H50.1737H51.7406L51.9365 67.0412C52.1077 60.7031 52.2307 59.6314 52.9158 58.4942C53.3467 57.7789 54.2488 56.8537 54.9206 56.4377C55.6927 55.9594 56.8455 55.6816 58.0544 55.6828C59.2562 55.6836 60.4306 55.9668 61.2148 56.4451C61.9015 56.8639 62.6947 57.6124 62.9776 58.1084C63.3329 58.7312 63.553 61.38 63.6882 66.6495L63.884 74.2881H67.0178H70.1516L70.2718 72.6233L70.3925 70.9584H68.8448H67.2975L67.1576 64.9741C67.0292 59.4739 66.9367 58.8323 66.0169 57.0452C65.4192 55.8834 64.3556 54.6365 63.3752 53.9471C62.1365 53.0771 61.18 52.7559 59.4791 52.6395C57.9682 52.5361 56.7292 52.6955 55.7225 53.1229C54.8963 53.4739 53.485 54.5174 52.5863 55.4423L50.9525 57.1236L49.9211 55.675C49.3538 54.8782 48.1097 53.8488 47.1559 53.3869C46.166 52.9078 44.6759 52.551 43.6844 52.5561C42.729 52.5608 41.2424 52.8902 40.3807 53.2878ZM80.7536 53.3387C79.69 53.754 78.0558 54.8441 77.1215 55.7612C76.1869 56.6778 75.0356 58.2251 74.5628 59.1989C73.9282 60.5061 73.7029 61.6875 73.7029 63.7116C73.7029 65.7501 73.9274 66.9158 74.578 68.2555C75.0591 69.2466 76.1109 70.7179 76.9155 71.5256C77.7197 72.333 79.0829 73.3718 79.9446 73.8341C81.2146 74.5149 82.1794 74.6739 85.037 74.6735C88.1085 74.6727 88.8215 74.5364 90.5752 73.6147C91.6822 73.0326 93.2346 71.8006 94.0255 70.877L95.4631 69.1972L94.3632 68.317C93.7584 67.8329 93.1543 67.4361 93.0211 67.4349C92.8876 67.4337 92.0034 68.2081 91.0555 69.1561C89.9148 70.2968 88.7404 71.0383 87.5805 71.3509C86.6169 71.6103 85.0884 71.7391 84.1835 71.6373C83.279 71.535 81.8668 71.1045 81.0458 70.6807C80.2247 70.2565 79.0821 69.22 78.5066 68.3774C77.9308 67.5348 77.3464 66.4485 77.2069 65.964L76.9538 65.0826H86.3818H95.8094L95.7796 63.026C95.7632 61.8947 95.543 60.4082 95.29 59.7223C95.0369 59.0363 94.2778 57.6943 93.6028 56.7397C92.7391 55.5187 91.647 54.6408 89.9167 53.7759C87.9448 52.7907 86.9859 52.551 85.0723 52.5659C83.6887 52.5764 81.8747 52.9012 80.7536 53.3387ZM112.793 53.1511C112.116 53.448 111.014 54.3553 110.345 55.1669L109.128 56.6433V54.9871V53.3309H104.405H99.6816L99.8022 54.9957L99.9225 56.6605L102.958 56.7749L105.994 56.8893V63.9239V70.9584H102.86H99.7266V72.7212V74.4839H108.345H116.962V72.7212V70.9584H113.007H109.051L109.188 65.7681C109.305 61.3694 109.459 60.3075 110.198 58.8064C110.677 57.8322 111.586 56.7307 112.216 56.3581C112.846 55.986 114.04 55.684 114.868 55.6871C115.697 55.6906 116.627 55.8528 116.935 56.0479C117.247 56.2453 117.508 57.048 117.523 57.8577C117.543 58.9423 117.805 59.5037 118.551 60.0627C119.361 60.6694 119.754 60.7356 120.614 60.4082C121.199 60.1861 121.855 59.537 122.072 58.9662C122.289 58.3951 122.351 57.5549 122.209 57.0985C122.068 56.6421 121.596 55.7635 121.161 55.1458C120.726 54.5284 119.647 53.6948 118.764 53.2937C117.881 52.893 116.453 52.5753 115.591 52.5882C114.73 52.6007 113.47 52.8542 112.793 53.1511ZM132.406 53.3532C131.312 53.7739 129.692 54.7388 128.806 55.4975C127.92 56.2563 126.743 57.831 126.191 58.9972C125.419 60.6299 125.189 61.7298 125.193 63.7852C125.195 65.7748 125.432 66.9519 126.125 68.4122C126.636 69.4895 127.736 71.0231 128.569 71.8206C129.403 72.6178 130.967 73.6637 132.044 74.1447C133.413 74.7562 134.769 75.0214 136.549 75.0249C138.452 75.0292 139.639 74.7801 141.252 74.0393C142.438 73.4941 143.983 72.4736 144.684 71.772C145.386 71.0705 146.134 70.1715 146.346 69.7746C146.66 69.1882 146.506 68.8909 145.525 68.1929L144.318 67.3334L143.176 68.719C142.548 69.4812 141.273 70.4731 140.342 70.9232C139.302 71.4269 137.88 71.7419 136.646 71.7419C135.543 71.7419 134.145 71.5546 133.538 71.3263C132.932 71.0975 131.848 70.3481 131.129 69.6614C130.41 68.9744 129.573 67.9363 129.268 67.3546C128.958 66.7627 128.717 65.2091 128.72 63.8291C128.725 62.0013 128.955 60.9577 129.608 59.8061C130.093 58.9506 131.087 57.8475 131.818 57.3547C132.549 56.8619 133.807 56.2614 134.613 56.0197C135.45 55.769 136.84 55.6946 137.852 55.8465C138.827 55.9927 140.211 56.5097 140.927 56.9955C142.074 57.7738 142.213 58.0543 142.097 59.3556C142.007 60.3561 142.185 61.076 142.647 61.5865C143.022 62.0013 143.754 62.3405 144.274 62.3405C144.793 62.3405 145.539 62.169 145.931 61.959C146.322 61.7494 146.755 61.1321 146.892 60.5876C147.051 59.9518 146.861 59.0501 146.36 58.0688C145.932 57.2282 144.915 55.9911 144.101 55.3193C143.287 54.6479 141.688 53.7497 140.549 53.3231C139.407 52.8953 137.562 52.5565 136.436 52.5678C135.313 52.5792 133.499 52.9325 132.406 53.3532ZM192.565 53.374C191.811 53.8268 190.804 54.6635 190.327 55.2331L189.459 56.2688L189.445 54.7877L189.431 53.3066L184.633 53.4167L179.834 53.5268V55.0937V56.6605L183.066 56.7741L186.297 56.8881V63.9074V70.9267L183.066 71.0407L179.834 71.1543L179.716 72.3628C179.648 73.0612 179.834 73.7675 180.158 74.0358C180.559 74.3688 183.027 74.4702 188.893 74.3942L197.07 74.2881L197.19 72.6233L197.311 70.9584H193.371H189.431L189.434 66.1598C189.435 63.5204 189.629 60.6643 189.866 59.8127C190.102 58.9611 190.877 57.6829 191.587 56.9728C192.702 55.8579 193.145 55.6812 194.828 55.6812C196.076 55.6812 196.952 55.8908 197.261 56.2637C197.527 56.5842 197.642 57.1146 197.516 57.4424C197.391 57.7703 197.449 58.4625 197.646 58.9807C197.843 59.499 198.411 60.0611 198.908 60.2291C199.405 60.3976 200.076 60.4849 200.399 60.4234C200.723 60.3615 201.296 60.0352 201.672 59.6984C202.064 59.3482 202.358 58.5291 202.358 57.7887C202.358 56.8854 201.973 56.0538 201.091 55.049C200.394 54.2554 199.254 53.3677 198.558 53.0767C197.861 52.7856 196.536 52.5482 195.613 52.549C194.607 52.5498 193.388 52.8796 192.565 53.374ZM237.786 53.6709C236.358 54.3463 234.846 55.4564 233.988 56.458C233.205 57.3739 232.289 58.9271 231.954 59.9099C231.619 60.8927 231.345 62.6034 231.345 63.7116C231.345 64.8197 231.619 66.5304 231.954 67.5132C232.289 68.4961 233.185 70.0269 233.946 70.9153C234.706 71.8038 236.126 72.9981 237.1 73.5689C238.439 74.3535 239.571 74.652 241.739 74.791C243.913 74.9305 245.104 74.7973 246.665 74.2399C247.924 73.7902 249.434 72.814 250.552 71.727C251.784 70.5287 252.667 69.1886 253.262 67.6139C253.933 65.8339 254.097 64.7555 253.95 63.0797C253.844 61.8701 253.414 60.1073 252.995 59.1625C252.576 58.2173 251.543 56.755 250.701 55.9124C249.858 55.0702 248.239 53.9682 247.101 53.4641C245.654 52.8224 244.302 52.5475 242.596 52.5479C240.727 52.5479 239.606 52.8099 237.786 53.6709ZM150.259 55.078V56.8564H151.826H153.393V62.0734C153.393 65.5307 153.587 67.9469 153.97 69.236C154.295 70.3289 155.11 71.7583 155.831 72.4987C156.537 73.2234 157.681 74.0546 158.375 74.346C159.068 74.6371 160.569 74.8757 161.71 74.8757C163.064 74.8757 164.327 74.5893 165.346 74.0511C166.205 73.5975 167.291 72.8732 167.761 72.4419L168.614 71.6577L168.74 72.9731L168.866 74.2881H171.999H175.133L175.254 72.6233L175.374 70.9584H173.792H172.21L172.105 62.2426L171.999 53.5268H170.433H168.866L168.67 60.5778C168.55 64.875 168.296 67.9347 168.018 68.4122C167.767 68.8431 167.062 69.6591 166.451 70.2251C165.84 70.7912 164.955 71.4524 164.485 71.6941C164.014 71.9358 163.08 72.1336 162.409 72.1336C161.738 72.1336 160.712 71.886 160.13 71.5832C159.549 71.2804 158.632 70.5616 158.093 69.9858C157.134 68.9595 157.11 68.7859 156.918 61.2327L156.722 53.5268L153.491 53.4132L150.259 53.2992V55.078ZM205.1 55.0588V56.8114L206.744 56.932L208.387 57.0523L212.006 65.4743C213.996 70.1064 215.637 74.1972 215.651 74.5646C215.665 74.9321 214.867 77.3118 213.877 79.8529C212.888 82.394 211.988 84.6934 211.877 84.9625C211.733 85.3111 212.178 85.4522 213.418 85.4522H215.161L217.906 78.4991C219.416 74.6747 221.935 68.2501 223.503 64.2212L226.355 56.8964L227.969 56.7785C229.566 56.6617 229.584 56.6433 229.703 54.9957L229.824 53.3309H225.078H220.332L220.453 54.9957C220.561 56.4976 220.682 56.6731 221.681 56.7875C222.521 56.8838 222.735 57.073 222.563 57.5709C222.438 57.9321 221.323 60.8265 220.084 64.0034C218.845 67.1803 217.728 69.7805 217.602 69.7813C217.475 69.7825 216.14 66.919 214.634 63.4178L211.895 57.0523L213.101 56.8564C214.213 56.6758 214.306 56.5399 214.306 55.0937V53.5268L209.703 53.4163L205.1 53.3062V55.0588ZM89.3323 57.0154C90.1306 57.6242 91.1205 58.6748 91.5322 59.3501C91.9443 60.0254 92.2816 60.7983 92.2823 61.0674C92.2835 61.4423 90.4941 61.5571 84.6375 61.5571H76.9907L77.744 60.0881C78.1584 59.2804 78.9125 58.2321 79.4197 57.7589C79.927 57.2857 80.9576 56.6222 81.7101 56.2841C82.6048 55.8822 83.9097 55.7106 85.4797 55.789C87.3995 55.8842 88.172 56.1302 89.3323 57.0154ZM246.257 56.7585C247.829 57.5556 248.676 58.3187 249.515 59.6929C250.374 61.1003 250.653 62.0483 250.666 63.6101C250.679 64.967 250.406 66.2049 249.867 67.2371C249.417 68.0989 248.633 69.1922 248.125 69.6665C247.616 70.1413 246.547 70.8021 245.748 71.1355C244.95 71.4692 243.543 71.7286 242.62 71.7121C241.698 71.6957 240.369 71.4743 239.668 71.2201C238.968 70.9659 237.839 70.2341 237.161 69.5941C236.483 68.954 235.606 67.7212 235.213 66.8543C234.819 65.9875 234.497 64.5733 234.497 63.7116C234.497 62.8498 234.822 61.427 235.221 60.55C235.619 59.6729 236.629 58.39 237.465 57.6986C238.3 57.0072 239.513 56.2865 240.159 56.0969C240.806 55.9073 241.964 55.7361 242.733 55.7165C243.544 55.6961 245.025 56.1341 246.257 56.7585Z" fill="black"/>
</svg>
