<svg width="160" height="40" viewBox="0 0 160 40" fill="none" xmlns="http://www.w3.org/2000/svg">
<path fill-rule="evenodd" clip-rule="evenodd" d="M22.1226 0.873644C20.9574 -0.29154 19.068 -0.29154 17.9042 0.873644L0.892542 17.8895C-0.272642 19.0547 -0.272642 20.9441 0.892542 22.1093L17.9028 39.1252C19.068 40.2904 20.9574 40.2904 22.1212 39.1252L29.5184 31.7252L19.9053 22.1093C18.7401 20.9441 18.7401 19.0547 19.9053 17.8895L29.5184 8.27361L22.1226 0.873644Z" fill="#00A754"/>
<path fill-rule="evenodd" clip-rule="evenodd" d="M41.1353 0.873644C39.9702 -0.29154 38.0808 -0.29154 36.917 0.873644L29.5198 8.27221L39.1329 17.8881C40.2981 19.0533 40.2981 20.9427 39.1329 22.1079L29.5198 31.7238L36.917 39.1238C38.0822 40.289 39.9716 40.289 41.1353 39.1238L58.1456 22.1079C59.3108 20.9427 59.3108 19.0533 58.1456 17.8881L41.1353 0.873644Z" fill="#0A6E5C"/>
<path d="M70.5 1.84204H80.4927C84.8255 1.84204 88.1075 4.99571 88.1075 9.18758C88.1075 12.404 86.0911 14.9716 83.1272 15.8856L88.7564 24.3406H83.4873L78.733 16.275H74.9975V24.3406H70.5112V1.84204H70.5014H70.5ZM74.9877 6.06461V12.3622H80.3908C82.1504 12.3622 83.4887 10.9961 83.4887 9.20852C83.4887 7.42097 82.1504 6.05484 80.3908 6.05484H74.9877V6.06461Z" fill="#010101"/>
<path d="M89.9495 16.0613C89.9495 11.1201 93.4381 7.39014 98.0584 7.39014C100.272 7.39014 102.123 8.26368 103.461 9.73306V7.78086H107.691V24.353H103.461V22.4008C102.123 23.859 100.272 24.7437 98.0584 24.7437C93.4381 24.7437 89.9495 21.004 89.9495 16.0627V16.0613ZM103.461 16.0613C103.461 13.4617 101.506 11.4787 98.8719 11.4787C96.2373 11.4787 94.313 13.4617 94.313 16.0613C94.313 18.661 96.268 20.6439 98.8719 20.6439C101.476 20.6439 103.461 18.661 103.461 16.0613Z" fill="#010101"/>
<path d="M112.084 7.76987H116.313V9.49602C117.548 8.09919 119.216 7.37915 121.232 7.37915C123.609 7.37915 125.493 8.44805 126.501 10.2356C127.798 8.38665 129.753 7.37915 132.192 7.37915C135.835 7.37915 138.275 9.81418 138.275 13.5539V24.342H134.045V14.8182C134.045 12.8046 132.779 11.4692 130.794 11.4692C128.808 11.4692 127.305 12.8353 127.305 14.8796V24.3322H123.076V14.8084C123.076 12.7948 121.768 11.4594 119.824 11.4594C117.745 11.4594 116.305 12.8255 116.305 14.8698V24.3211H112.075V7.76987H112.085H112.084Z" fill="#010101"/>
<path d="M142.154 7.76987H146.383V9.72208C147.722 8.26385 149.573 7.37915 151.787 7.37915C156.407 7.37915 159.855 11.1189 159.855 16.0504C159.855 20.9818 156.407 24.7313 151.787 24.7313C149.573 24.7313 147.722 23.8578 146.383 22.3884V30.5154H142.154V7.76987ZM155.49 16.0615C155.49 13.4618 153.576 11.4789 150.933 11.4789C148.29 11.4789 146.374 13.4618 146.374 16.0615C146.374 18.6612 148.329 20.6441 150.933 20.6441C153.536 20.6441 155.49 18.6612 155.49 16.0615Z" fill="#010101"/>
<path d="M129.996 38.0282H131.596L128.942 33.5001L131.564 30.1245H129.931L126.732 34.2773V30.1245H125.347V38.0282H126.732V36.3467L128.039 34.6624L129.996 38.0282Z" fill="#010101"/>
<path d="M122.409 33.941C122.654 33.5656 122.776 33.1163 122.776 32.5902C122.776 31.8116 122.523 31.206 122.019 30.7734C121.523 30.3408 120.826 30.1245 119.933 30.1245H116.916V38.0282H118.3V35.0769H119.999L121.338 38.0282H122.852L121.349 34.7852C121.818 34.5913 122.171 34.3094 122.41 33.9424L122.409 33.941ZM120.959 33.5196C120.713 33.7429 120.371 33.8545 119.932 33.8545H118.299V31.3567H119.932C120.371 31.3567 120.713 31.4641 120.959 31.6804C121.204 31.8897 121.326 32.1925 121.326 32.5888C121.326 32.9851 121.204 33.2949 120.959 33.5182V33.5196Z" fill="#010101"/>
<path d="M112.589 30.5027C112.02 30.1567 111.357 29.9836 110.6 29.9836C109.844 29.9836 109.177 30.1567 108.601 30.5027C108.031 30.8488 107.585 31.3316 107.26 31.9512C106.936 32.5638 106.774 33.2741 106.774 34.0806C106.774 34.8872 106.932 35.5877 107.249 36.2003C107.574 36.8129 108.023 37.2915 108.601 37.6376C109.177 37.9836 109.841 38.1567 110.589 38.1567C111.337 38.1567 112.013 37.9836 112.589 37.6376C113.165 37.2915 113.616 36.8129 113.941 36.2003C114.265 35.5807 114.427 34.8704 114.427 34.0709C114.427 33.2713 114.265 32.554 113.941 31.9414C113.616 31.3288 113.167 30.8502 112.589 30.5041V30.5027ZM112.687 35.5305C112.491 35.9407 112.218 36.2617 111.865 36.4933C111.512 36.7166 111.09 36.8282 110.599 36.8282C110.108 36.8282 109.693 36.7166 109.333 36.4933C108.98 36.2701 108.707 35.9533 108.512 35.5416C108.318 35.123 108.22 34.6332 108.22 34.0709C108.22 33.5085 108.318 33.0215 108.512 32.6112C108.707 32.201 108.98 31.8828 109.333 31.6596C109.693 31.4293 110.115 31.3135 110.599 31.3135C111.083 31.3135 111.512 31.4293 111.865 31.6596C112.218 31.8828 112.491 32.1996 112.687 32.6112C112.881 33.0215 112.978 33.5085 112.978 34.0709C112.978 34.6332 112.881 35.1118 112.687 35.5305Z" fill="#010101"/>
<path d="M102.612 34.3191C102.554 34.5131 102.493 34.7294 102.427 34.968C102.37 35.1982 102.306 35.4982 102.233 35.8652C102.168 35.5331 102.104 35.2457 102.038 35.0001C101.981 34.7545 101.92 34.5214 101.854 34.2968L100.633 30.123H99.1077L97.8532 34.2968C97.7876 34.52 97.7235 34.7503 97.6593 34.9889C97.6021 35.2192 97.5407 35.5122 97.4751 35.8652C97.4179 35.5192 97.3593 35.2275 97.302 34.9889C97.2448 34.7433 97.1834 34.5131 97.1178 34.2968L95.8634 30.123H94.4261L96.7829 38.0268H98.1337L99.8641 32.2748L101.551 38.0268H102.891L105.292 30.123H103.886L102.61 34.3177L102.612 34.3191Z" fill="#010101"/>
<path d="M86.7777 31.4013H89.0913V38.0282H90.4756V31.4013H92.7892V30.1245H86.7777V31.4013Z" fill="#010101"/>
<path d="M79.8815 38.0282H84.7906V36.7528H81.2657V34.6555H84.4222V33.4331H81.2657V31.4013H84.7906V30.1245H79.8815V38.0282Z" fill="#010101"/>
<path d="M75.5808 35.7355L71.8731 30.1245H70.5V38.0282H71.8619V32.4256L75.5808 38.0282H76.9427V30.1245H75.5808V35.7355Z" fill="#010101"/>
</svg>
