<svg width="24" height="24" fill="none" xmlns="http://www.w3.org/2000/svg"><mask id="a" maskUnits="userSpaceOnUse" x="5.156" y="5.605" width="12" height="15" fill="#000"><path fill="#fff" d="M5.156 5.605h12v15h-12z"></path><path fill-rule="evenodd" clip-rule="evenodd" d="M12.406 6.605c1.13 0 2.043.914 2.043 2.043 0 .47-.168.908-.437 1.257l2.736 2.735v4.906a.278.278 0 1 1-.558 0v-4.67l-2.58-2.581c-.343.249-.753.39-1.204.39a2.04 2.04 0 1 1 0-4.08zm-.282 8.448v.94a2.042 2.042 0 1 0 2.325 2.023 2.039 2.039 0 0 0-1.76-2.022V12.7a.284.284 0 0 0-.283-.282.284.284 0 0 0-.282.282v2.352zm.282 4.435c.813 0 1.472-.658 1.472-1.471 0-.813-.659-1.479-1.472-1.479-.82 0-1.478.666-1.478 1.479 0 .813.658 1.471 1.478 1.471zm-3.924-2.002v.06a.284.284 0 0 1-.283.283.284.284 0 0 1-.282-.283v-2.325a2.042 2.042 0 1 1 2.325-2.023 2.039 2.039 0 0 1-1.76 2.023v2.265zm-.283-5.766c.813 0 1.472.665 1.472 1.478s-.659 1.472-1.472 1.472c-.82 0-1.478-.659-1.478-1.472s.658-1.478 1.478-1.478zm4.207-4.55c.813 0 1.472.659 1.472 1.478 0 .814-.659 1.472-1.472 1.472a1.474 1.474 0 1 1 0-2.95z"></path></mask><path fill-rule="evenodd" clip-rule="evenodd" d="M12.406 6.605c1.13 0 2.043.914 2.043 2.043 0 .47-.168.908-.437 1.257l2.736 2.735v4.906a.278.278 0 1 1-.558 0v-4.67l-2.58-2.581c-.343.249-.753.39-1.204.39a2.04 2.04 0 1 1 0-4.08zm-.282 8.448v.94a2.042 2.042 0 1 0 2.325 2.023 2.039 2.039 0 0 0-1.76-2.022V12.7a.284.284 0 0 0-.283-.282.284.284 0 0 0-.282.282v2.352zm.282 4.435c.813 0 1.472-.658 1.472-1.471 0-.813-.659-1.479-1.472-1.479-.82 0-1.478.666-1.478 1.479 0 .813.658 1.471 1.478 1.471zm-3.924-2.002v.06a.284.284 0 0 1-.283.283.284.284 0 0 1-.282-.283v-2.325a2.042 2.042 0 1 1 2.325-2.023 2.039 2.039 0 0 1-1.76 2.023v2.265zm-.283-5.766c.813 0 1.472.665 1.472 1.478s-.659 1.472-1.472 1.472c-.82 0-1.478-.659-1.478-1.472s.658-1.478 1.478-1.478zm4.207-4.55c.813 0 1.472.659 1.472 1.478 0 .814-.659 1.472-1.472 1.472a1.474 1.474 0 1 1 0-2.95z" fill="#000"></path><path clip-rule="evenodd" d="M12.406 6.605c1.13 0 2.043.914 2.043 2.043 0 .47-.168.908-.437 1.257l2.736 2.735v4.906a.278.278 0 1 1-.558 0v-4.67l-2.58-2.581c-.343.249-.753.39-1.204.39a2.04 2.04 0 1 1 0-4.08zm-.282 8.448v.94a2.042 2.042 0 1 0 2.325 2.023 2.039 2.039 0 0 0-1.76-2.022V12.7a.284.284 0 0 0-.283-.282.284.284 0 0 0-.282.282v2.352zm.282 4.435c.813 0 1.472-.658 1.472-1.471 0-.813-.659-1.479-1.472-1.479-.82 0-1.478.666-1.478 1.479 0 .813.658 1.471 1.478 1.471zm-3.924-2.002v.06a.284.284 0 0 1-.283.283.284.284 0 0 1-.282-.283v-2.325a2.042 2.042 0 1 1 2.325-2.023 2.039 2.039 0 0 1-1.76 2.023v2.265zm-.283-5.766c.813 0 1.472.665 1.472 1.478s-.659 1.472-1.472 1.472c-.82 0-1.478-.659-1.478-1.472s.658-1.478 1.478-1.478zm4.207-4.55c.813 0 1.472.659 1.472 1.478 0 .814-.659 1.472-1.472 1.472a1.474 1.474 0 1 1 0-2.95z" stroke="#000" stroke-width=".2" mask="url(#a)"></path><mask id="b" maskUnits="userSpaceOnUse" x="3" y="1.963" width="18" height="22" fill="#000"><path fill="#fff" d="M3 1.963h18v22H3z"></path><path fill-rule="evenodd" clip-rule="evenodd" d="M4 14.421c.968 2.782 3.979 8.394 8.266 8.542 4.281-.148 7.292-5.76 8.26-8.542V7.19s-5.35-3.663-8.26-4.227C9.35 3.527 4 7.19 4 7.19v7.231zm.551-.1c.9 2.6 3.716 7.842 7.715 7.977 3.992-.135 6.808-5.377 7.715-7.978V7.573s-5-3.42-7.715-3.945c-2.722.524-7.715 3.945-7.715 3.945v6.747z"></path></mask><path fill-rule="evenodd" clip-rule="evenodd" d="M4 14.421c.968 2.782 3.979 8.394 8.266 8.542 4.281-.148 7.292-5.76 8.26-8.542V7.19s-5.35-3.663-8.26-4.227C9.35 3.527 4 7.19 4 7.19v7.231zm.551-.1c.9 2.6 3.716 7.842 7.715 7.977 3.992-.135 6.808-5.377 7.715-7.978V7.573s-5-3.42-7.715-3.945c-2.722.524-7.715 3.945-7.715 3.945v6.747z" fill="#000"></path><path clip-rule="evenodd" d="M4 14.421c.968 2.782 3.979 8.394 8.266 8.542 4.281-.148 7.292-5.76 8.26-8.542V7.19s-5.35-3.663-8.26-4.227C9.35 3.527 4 7.19 4 7.19v7.231zm.551-.1c.9 2.6 3.716 7.842 7.715 7.977 3.992-.135 6.808-5.377 7.715-7.978V7.573s-5-3.42-7.715-3.945c-2.722.524-7.715 3.945-7.715 3.945v6.747z" stroke="#000" stroke-width=".2" mask="url(#b)"></path></svg>