<svg width="24" height="24" fill="none" xmlns="http://www.w3.org/2000/svg"><mask id="a2" maskUnits="userSpaceOnUse" x="2.441" y="10.5" width="12" height="13" fill="#000"><path fill="#fff" d="M2.441 10.5h12v13h-12z"></path><path fill-rule="evenodd" clip-rule="evenodd" d="M9.822 22.962a2.085 2.085 0 0 0 1.642-3.371l2.795-2.796.001-2.607V11.787a.288.288 0 0 0-.287-.287.288.288 0 0 0-.288.287v4.77l-2.635 2.635a2.085 2.085 0 1 0-1.228 3.77zm-.287-7.299a2.086 2.086 0 1 1 .576 0l-.001 1.625c0 .38-.575.38-.575 0v-1.625zm.287-3.571a1.506 1.506 0 1 1 .002 3.012 1.506 1.506 0 0 1-.002-3.012zm-4.008-.286c0-.38-.575-.38-.575 0v3.365a2.085 2.085 0 1 0 .575 0v-3.365zm-.287 6.936a1.506 1.506 0 1 0 .001-3.011 1.506 1.506 0 0 0 0 3.011zm4.295 3.642a1.506 1.506 0 1 0 .001-3.013 1.506 1.506 0 0 0 0 3.013z"></path></mask><path fill-rule="evenodd" clip-rule="evenodd" d="M9.822 22.962a2.085 2.085 0 0 0 1.642-3.371l2.795-2.796.001-2.607V11.787a.288.288 0 0 0-.287-.287.288.288 0 0 0-.288.287v4.77l-2.635 2.635a2.085 2.085 0 1 0-1.228 3.77zm-.287-7.299a2.086 2.086 0 1 1 .576 0l-.001 1.625c0 .38-.575.38-.575 0v-1.625zm.287-3.571a1.506 1.506 0 1 1 .002 3.012 1.506 1.506 0 0 1-.002-3.012zm-4.008-.286c0-.38-.575-.38-.575 0v3.365a2.085 2.085 0 1 0 .575 0v-3.365zm-.287 6.936a1.506 1.506 0 1 0 .001-3.011 1.506 1.506 0 0 0 0 3.011zm4.295 3.642a1.506 1.506 0 1 0 .001-3.013 1.506 1.506 0 0 0 0 3.013z" fill="#000"></path><path clip-rule="evenodd" d="M9.822 22.962a2.085 2.085 0 0 0 1.642-3.371l2.795-2.796.001-2.607V11.787a.288.288 0 0 0-.287-.287.288.288 0 0 0-.288.287v4.77l-2.635 2.635a2.085 2.085 0 1 0-1.228 3.77zm-.287-7.299a2.086 2.086 0 1 1 .576 0l-.001 1.625c0 .38-.575.38-.575 0v-1.625zm.287-3.571a1.506 1.506 0 1 1 .002 3.012 1.506 1.506 0 0 1-.002-3.012zm-4.008-.286c0-.38-.575-.38-.575 0v3.365a2.085 2.085 0 1 0 .575 0v-3.365zm-.287 6.936a1.506 1.506 0 1 0 .001-3.011 1.506 1.506 0 0 0 0 3.011zm4.295 3.642a1.506 1.506 0 1 0 .001-3.013 1.506 1.506 0 0 0 0 3.013z" stroke="#000" stroke-width=".2" mask="url(#a)"></path><mask id="b2" maskUnits="userSpaceOnUse" x="1.012" y=".963" width="22" height="23" fill="#000"><path fill="#fff" d="M1.012.963h22v23h-22z"></path><path fill-rule="evenodd" clip-rule="evenodd" d="M22.433 7.73v1.017c0 .797-.652 1.45-1.45 1.45H3.462c-.797 0-1.45-.653-1.45-1.45V7.73l10.212-5.767 10.21 5.768zm-1.706 5.617v4.89c0 2.452-3.706 2.452-3.706 0v-4.89c0-2.45 3.706-2.45 3.706 0zm-.578.001v4.89c0 1.687-2.55 1.687-2.55 0v-4.89c0-1.687 2.55-1.687 2.55 0zm-18.137 9.04h5.083v.575H2.012v-.575zm10.452 0h9.97v.575h-9.97v-.575zm9.39-14.384v.747a.896.896 0 0 1-.641.834 2.9 2.9 0 0 1-.358.036H3.588a2.89 2.89 0 0 1-.357-.036.897.897 0 0 1-.642-.834v-.747l9.632-5.452h.002l9.632 5.452z"></path></mask><path fill-rule="evenodd" clip-rule="evenodd" d="M22.433 7.73v1.017c0 .797-.652 1.45-1.45 1.45H3.462c-.797 0-1.45-.653-1.45-1.45V7.73l10.212-5.767 10.21 5.768zm-1.706 5.617v4.89c0 2.452-3.706 2.452-3.706 0v-4.89c0-2.45 3.706-2.45 3.706 0zm-.578.001v4.89c0 1.687-2.55 1.687-2.55 0v-4.89c0-1.687 2.55-1.687 2.55 0zm-18.137 9.04h5.083v.575H2.012v-.575zm10.452 0h9.97v.575h-9.97v-.575zm9.39-14.384v.747a.896.896 0 0 1-.641.834 2.9 2.9 0 0 1-.358.036H3.588a2.89 2.89 0 0 1-.357-.036.897.897 0 0 1-.642-.834v-.747l9.632-5.452h.002l9.632 5.452z" fill="#000"></path><path clip-rule="evenodd" d="M22.433 7.73v1.017c0 .797-.652 1.45-1.45 1.45H3.462c-.797 0-1.45-.653-1.45-1.45V7.73l10.212-5.767 10.21 5.768zm-1.706 5.617v4.89c0 2.452-3.706 2.452-3.706 0v-4.89c0-2.45 3.706-2.45 3.706 0zm-.578.001v4.89c0 1.687-2.55 1.687-2.55 0v-4.89c0-1.687 2.55-1.687 2.55 0zm-18.137 9.04h5.083v.575H2.012v-.575zm10.452 0h9.97v.575h-9.97v-.575zm9.39-14.384v.747a.896.896 0 0 1-.641.834 2.9 2.9 0 0 1-.358.036H3.588a2.89 2.89 0 0 1-.357-.036.897.897 0 0 1-.642-.834v-.747l9.632-5.452h.002l9.632 5.452z" stroke="#000" stroke-width=".2" mask="url(#b)"></path></svg>