<svg width="24" height="24" fill="none" xmlns="http://www.w3.org/2000/svg"><mask id="a6" maskUnits="userSpaceOnUse" x="1" y="1.963" width="22" height="22" fill="#000"><path fill="#fff" d="M1 1.963h22v22H1z"></path><path fill-rule="evenodd" clip-rule="evenodd" d="M11.997 2.963a9.973 9.973 0 0 1 7.061 2.92V4.662c0-.375.565-.375.565 0v1.894a.28.28 0 0 1-.282.282h-1.9c-.374 0-.374-.564 0-.564h1.232A9.41 9.41 0 0 0 11.997 3.5c-5.21 0-9.433 4.239-9.433 9.46 0 1.428.315 2.779.88 3.995.163.353-.31.63-.516.222A10.031 10.031 0 0 1 2 12.96c0-5.52 4.478-9.997 9.997-9.997zm-7.06 18.773v-1.894a.28.28 0 0 1 .281-.282h1.9c.375 0 .375.564 0 .564h-1.28a9.366 9.366 0 0 0 6.16 2.302c5.215 0 9.438-4.24 9.438-9.466a9.508 9.508 0 0 0-.798-3.815c-.201-.456.38-.614.51-.223A9.93 9.93 0 0 1 22 12.96c0 5.525-4.478 10.003-10.003 10.003a9.973 9.973 0 0 1-6.496-2.399v1.172c0 .375-.565.375-.565 0z"></path></mask><path fill-rule="evenodd" clip-rule="evenodd" d="M11.997 2.963a9.973 9.973 0 0 1 7.061 2.92V4.662c0-.375.565-.375.565 0v1.894a.28.28 0 0 1-.282.282h-1.9c-.374 0-.374-.564 0-.564h1.232A9.41 9.41 0 0 0 11.997 3.5c-5.21 0-9.433 4.239-9.433 9.46 0 1.428.315 2.779.88 3.995.163.353-.31.63-.516.222A10.031 10.031 0 0 1 2 12.96c0-5.52 4.478-9.997 9.997-9.997zm-7.06 18.773v-1.894a.28.28 0 0 1 .281-.282h1.9c.375 0 .375.564 0 .564h-1.28a9.366 9.366 0 0 0 6.16 2.302c5.215 0 9.438-4.24 9.438-9.466a9.508 9.508 0 0 0-.798-3.815c-.201-.456.38-.614.51-.223A9.93 9.93 0 0 1 22 12.96c0 5.525-4.478 10.003-10.003 10.003a9.973 9.973 0 0 1-6.496-2.399v1.172c0 .375-.565.375-.565 0z" fill="#000"></path><path clip-rule="evenodd" d="M11.997 2.963a9.973 9.973 0 0 1 7.061 2.92V4.662c0-.375.565-.375.565 0v1.894a.28.28 0 0 1-.282.282h-1.9c-.374 0-.374-.564 0-.564h1.232A9.41 9.41 0 0 0 11.997 3.5c-5.21 0-9.433 4.239-9.433 9.46 0 1.428.315 2.779.88 3.995.163.353-.31.63-.516.222A10.031 10.031 0 0 1 2 12.96c0-5.52 4.478-9.997 9.997-9.997zm-7.06 18.773v-1.894a.28.28 0 0 1 .281-.282h1.9c.375 0 .375.564 0 .564h-1.28a9.366 9.366 0 0 0 6.16 2.302c5.215 0 9.438-4.24 9.438-9.466a9.508 9.508 0 0 0-.798-3.815c-.201-.456.38-.614.51-.223A9.93 9.93 0 0 1 22 12.96c0 5.525-4.478 10.003-10.003 10.003a9.973 9.973 0 0 1-6.496-2.399v1.172c0 .375-.565.375-.565 0z" stroke="#000" stroke-width=".2" mask="url(#a)"></path><mask id="b6" maskUnits="userSpaceOnUse" x="5.652" y="8.443" width="12" height="11" fill="#000"><path fill="#fff" d="M5.652 8.443h12v11h-12z"></path><path fill-rule="evenodd" clip-rule="evenodd" d="M6.652 9.443H17.35l-.337.565H6.99l-.337-.565zm9.542 1.938-4.196 7.04-4.19-7.04h8.386zm-1.227.971-2.969 4.983-3.202-5.406h6.426l-.255.423z"></path></mask><path fill-rule="evenodd" clip-rule="evenodd" d="M6.652 9.443H17.35l-.337.565H6.99l-.337-.565zm9.542 1.938-4.196 7.04-4.19-7.04h8.386zm-1.227.971-2.969 4.983-3.202-5.406h6.426l-.255.423z" fill="#000"></path><path clip-rule="evenodd" d="M6.652 9.443H17.35l-.337.565H6.99l-.337-.565zm9.542 1.938-4.196 7.04-4.19-7.04h8.386zm-1.227.971-2.969 4.983-3.202-5.406h6.426l-.255.423z" stroke="#000" stroke-width=".2" mask="url(#b)"></path></svg>