<?xml version="1.0" encoding="iso-8859-1"?>
<!-- Uploaded to: SVG Repo, www.svgrepo.com, Generator: SVG Repo Mixer Tools -->
<svg fill="#000000" height="800px" width="800px" version="1.1" id="Layer_1" xmlns="http://www.w3.org/2000/svg" xmlns:xlink="http://www.w3.org/1999/xlink" 
	 viewBox="0 0 512 512" xml:space="preserve">
<g>
	<g>
		<path d="M498.61,437.537l-25.802-25.802l-61.688,61.687l25.802,25.802c17.035,17.035,44.653,17.035,61.687,0
			C515.645,482.189,515.645,454.571,498.61,437.537z"/>
	</g>
</g>
<g>
	<g>
		<path d="M385.303,324.229c20.834-45.666,12.682-101.686-25.307-139.676c-48.651-48.651-127.397-48.657-176.055,0
			c-48.483,48.482-48.611,127.446,0,176.057c38.518,38.518,94.769,45.796,139.674,25.306c5.84,5.84,52.433,52.433,58.248,58.248
			l61.687-61.687C437.734,376.661,391.143,330.07,385.303,324.229z M320.529,321.144c-26.841,26.839-70.281,26.84-97.122,0
			c-26.777-26.776-26.777-70.347,0-97.123c26.84-26.839,70.281-26.84,97.122,0C347.369,250.861,347.371,294.302,320.529,321.144z"/>
	</g>
</g>
<g>
	<g>
		<path d="M151.314,0C68.218,0,0.614,67.604,0.614,150.7c0,75.066,55.171,137.482,127.092,148.845
			c-2.914-15.719-3.359-32.278-0.81-49.117c-4.559-6.655-8.194-14.082-11.164-21.548c5.445-0.791,11.021-1.398,16.676-1.823
			c6.91-21.299,18.858-41.37,35.65-58.193l1.45-1.42c17.269-16.84,38.8-29.738,63.577-36.497
			c-0.798-11.655-2.296-22.996-4.452-33.826c7.815-2.455,15.207-5.289,22.068-8.479c7.07,11.282,12.273,23.846,15.173,37.258
			c11.662-0.472,23.114,0.381,34.499,2.601C289.609,55.893,226.869,0,151.314,0z M51.79,212.543
			c-8.396-13.462-14.136-28.739-16.487-45.099h34.037c0.719,12.621,2.253,24.898,4.553,36.588
			C66.064,206.495,58.66,209.34,51.79,212.543z M69.358,133.955H35.304c2.363-16.447,8.152-31.801,16.622-45.315
			c6.861,3.19,14.253,6.024,22.068,8.479C71.653,108.88,70.094,121.244,69.358,133.955z M74.517,239.266
			c0.023-0.009,0.049-0.018,0.073-0.027c2.64-1.012,5.367-1.97,8.172-2.873c1.64,4.506,3.428,8.834,5.337,12.997
			c0.013,0.03,0.028,0.059,0.041,0.088C83.383,246.399,78.821,243.011,74.517,239.266z M88.281,51.92
			c-1.907,4.13-3.697,8.42-5.338,12.891c-2.772-0.889-5.516-1.846-8.199-2.871c4.292-3.715,8.838-7.076,13.578-10.105
			C88.307,51.863,88.294,51.891,88.281,51.92z M134.569,193.332c-9.592,0.556-18.988,1.587-28.075,3.062
			c-1.759-9.231-2.976-18.933-3.615-28.95h31.689V193.332z M134.569,133.955h-31.673c0.655-10.114,1.9-19.907,3.698-29.213
			c9.055,1.467,18.418,2.493,27.974,3.046V133.955z M134.569,74.22c-6.327-0.422-12.558-1.074-18.633-1.952
			c4.272-10.616,10.436-22.288,18.633-30.333V74.22z M168.058,41.935c8.198,8.047,14.363,19.722,18.633,30.333
			c-6.075,0.878-12.306,1.53-18.633,1.952V41.935z M168.058,133.955v-26.167c9.557-0.554,18.919-1.58,27.974-3.046
			c1.799,9.307,3.043,19.1,3.699,29.213H168.058z M219.685,64.811c-1.666-4.539-3.436-8.77-5.378-12.976
			c4.74,3.029,9.285,6.39,13.577,10.105C225.201,62.963,222.457,63.922,219.685,64.811z"/>
	</g>
</g>
</svg>