<svg version="1.2" xmlns="http://www.w3.org/2000/svg" viewBox="0 0 135 40" width="135" height="40">
	<title>logo</title>
	<style>
		tspan { white-space:pre } 
		.s0 { fill: #ffffff } 
		.t1 { font-size: 19px;fill: #ffffff;font-weight: 400;font-family: "Commando", "Commando" } 
	</style>
	<path id="Layer" class="s0" d="m18.8 28c-3.9-0.5-6.9-3.9-6.9-8 0-4.1 3-7.5 6.9-8.1v-4.2c-6.2 0.6-11.1 5.9-11.1 12.3 0 6.4 4.9 11.7 11.1 12.3z"/>
	<path id="Layer" class="s0" d="m27 12l-0.1 0.4v10.7l0.1 0.1 5-2.9z"/>
	<path id="Layer" class="s0" d="m27 12l-5 8.3 5 2.9v-5.2z"/>
	<path id="Layer" class="s0" d="m27 24.9h-0.1v3.9l0.1 0.2 5-7.1z"/>
	<path id="Layer" class="s0" d="m27 29v-4.1l-5-3z"/>
	<path id="Layer" class="s0" d="m27 23.2l5-2.9-5-2.3z"/>
	<path id="Layer" class="s0" d="m22 20.3l5 2.9v-5.2z"/>
	<text id="TokenTrade" style="transform: matrix(1,0,0,1,35,28)" >
		<tspan x="0" y="0" class="t1">T</tspan><tspan  y="0" class="t1">o</tspan><tspan  y="0" class="t1">k</tspan><tspan  y="0" class="t1">e</tspan><tspan  y="0" class="t1">n</tspan><tspan  y="0" class="t1">T</tspan><tspan  y="0" class="t1">r</tspan><tspan  y="0" class="t1">a</tspan><tspan  y="0" class="t1">d</tspan><tspan  y="0" class="t1">e
</tspan>
	</text>
</svg>