<svg width="24" height="24" fill="none" xmlns="http://www.w3.org/2000/svg"><mask id="a3" maskUnits="userSpaceOnUse" x="1.426" y="5.435" width="21" height="19" fill="#000"><path fill="#fff" d="M1.426 5.435h21v19h-21z"></path><path fill-rule="evenodd" clip-rule="evenodd" d="M19.786 7.853h1.469a.319.319 0 0 1 .311.34v1.854c0 .985-.778 1.796-1.75 1.85v11.322h.94a.317.317 0 0 1 0 .632H3.176a.317.317 0 0 1 0-.633h1V11.898a1.858 1.858 0 0 1-1.75-1.85V8.168a.319.319 0 0 1 .295-.315H4.207l1.417-1.418h12.744l1.418 1.418zm-4.373.635h2.437v1.557c0 .67-.548 1.219-1.219 1.219-.67 0-1.218-.549-1.218-1.22V8.489zm-3.083 0h2.437v1.557c0 .67-.548 1.219-1.218 1.219-.67 0-1.22-.549-1.22-1.22V8.489zm-3.105 0h2.437v1.557c0 .67-.548 1.219-1.218 1.219-.671 0-1.22-.549-1.22-1.22V8.489zm-3.083 0H8.58v1.557c0 .67-.549 1.219-1.219 1.219s-1.219-.549-1.219-1.22V8.489zm-3.081 0h2.438v1.557c0 .67-.549 1.219-1.22 1.219-.67 0-1.218-.549-1.218-1.22V8.489zm15.433 0h2.438v1.557c0 .67-.548 1.219-1.219 1.219-.67 0-1.219-.549-1.219-1.22V8.489zm.75 3.35a1.866 1.866 0 0 1-1.071-.767c-.333.499-.9.829-1.542.829-.64 0-1.208-.33-1.54-.829-.334.499-.901.829-1.542.829a1.855 1.855 0 0 1-1.553-.846 1.855 1.855 0 0 1-1.552.846c-.642 0-1.209-.33-1.542-.829-.333.499-.9.829-1.541.829-.641 0-1.209-.33-1.542-.829-.248.373-.628.65-1.072.768v11.38h14.498v-11.38zm-1.382-3.985h1.01l-.865-.866H5.985l-.864.865H17.86z"></path></mask><path fill-rule="evenodd" clip-rule="evenodd" d="M19.786 7.853h1.469a.319.319 0 0 1 .311.34v1.854c0 .985-.778 1.796-1.75 1.85v11.322h.94a.317.317 0 0 1 0 .632H3.176a.317.317 0 0 1 0-.633h1V11.898a1.858 1.858 0 0 1-1.75-1.85V8.168a.319.319 0 0 1 .295-.315H4.207l1.417-1.418h12.744l1.418 1.418zm-4.373.635h2.437v1.557c0 .67-.548 1.219-1.219 1.219-.67 0-1.218-.549-1.218-1.22V8.489zm-3.083 0h2.437v1.557c0 .67-.548 1.219-1.218 1.219-.67 0-1.22-.549-1.22-1.22V8.489zm-3.105 0h2.437v1.557c0 .67-.548 1.219-1.218 1.219-.671 0-1.22-.549-1.22-1.22V8.489zm-3.083 0H8.58v1.557c0 .67-.549 1.219-1.219 1.219s-1.219-.549-1.219-1.22V8.489zm-3.081 0h2.438v1.557c0 .67-.549 1.219-1.22 1.219-.67 0-1.218-.549-1.218-1.22V8.489zm15.433 0h2.438v1.557c0 .67-.548 1.219-1.219 1.219-.67 0-1.219-.549-1.219-1.22V8.489zm.75 3.35a1.866 1.866 0 0 1-1.071-.767c-.333.499-.9.829-1.542.829-.64 0-1.208-.33-1.54-.829-.334.499-.901.829-1.542.829a1.855 1.855 0 0 1-1.553-.846 1.855 1.855 0 0 1-1.552.846c-.642 0-1.209-.33-1.542-.829-.333.499-.9.829-1.541.829-.641 0-1.209-.33-1.542-.829-.248.373-.628.65-1.072.768v11.38h14.498v-11.38zm-1.382-3.985h1.01l-.865-.866H5.985l-.864.865H17.86z" fill="#000"></path><path clip-rule="evenodd" d="M19.786 7.853h1.469a.319.319 0 0 1 .311.34v1.854c0 .985-.778 1.796-1.75 1.85v11.322h.94a.317.317 0 0 1 0 .632H3.176a.317.317 0 0 1 0-.633h1V11.898a1.858 1.858 0 0 1-1.75-1.85V8.168a.319.319 0 0 1 .295-.315H4.207l1.417-1.418h12.744l1.418 1.418zm-4.373.635h2.437v1.557c0 .67-.548 1.219-1.219 1.219-.67 0-1.218-.549-1.218-1.22V8.489zm-3.083 0h2.437v1.557c0 .67-.548 1.219-1.218 1.219-.67 0-1.22-.549-1.22-1.22V8.489zm-3.105 0h2.437v1.557c0 .67-.548 1.219-1.218 1.219-.671 0-1.22-.549-1.22-1.22V8.489zm-3.083 0H8.58v1.557c0 .67-.549 1.219-1.219 1.219s-1.219-.549-1.219-1.22V8.489zm-3.081 0h2.438v1.557c0 .67-.549 1.219-1.22 1.219-.67 0-1.218-.549-1.218-1.22V8.489zm15.433 0h2.438v1.557c0 .67-.548 1.219-1.219 1.219-.67 0-1.219-.549-1.219-1.22V8.489zm.75 3.35a1.866 1.866 0 0 1-1.071-.767c-.333.499-.9.829-1.542.829-.64 0-1.208-.33-1.54-.829-.334.499-.901.829-1.542.829a1.855 1.855 0 0 1-1.553-.846 1.855 1.855 0 0 1-1.552.846c-.642 0-1.209-.33-1.542-.829-.333.499-.9.829-1.541.829-.641 0-1.209-.33-1.542-.829-.248.373-.628.65-1.072.768v11.38h14.498v-11.38zm-1.382-3.985h1.01l-.865-.866H5.985l-.864.865H17.86z" stroke="#000" stroke-width=".2" mask="url(#a)"></path><mask id="b3" maskUnits="userSpaceOnUse" x="5.27" y="13.293" width="13" height="11" fill="#000"><path fill="#fff" d="M5.27 13.293h13v11h-13z"></path><path fill-rule="evenodd" clip-rule="evenodd" d="M6.668 14.293h3.656a.4.4 0 0 1 .398.398v3.656a.4.4 0 0 1-.398.399H6.668a.4.4 0 0 1-.398-.399v-3.656a.4.4 0 0 1 .398-.398zm6.288 2.584h4.183a.4.4 0 0 1 .398.398v6.002h-.633V17.51h-3.713v5.766h-.633v-6a.4.4 0 0 1 .398-.4zm2.574 2.28h.633v1.54h-.633v-1.54zm-8.627-4.231h3.186v3.187H6.903v-3.187z"></path></mask><path fill-rule="evenodd" clip-rule="evenodd" d="M6.668 14.293h3.656a.4.4 0 0 1 .398.398v3.656a.4.4 0 0 1-.398.399H6.668a.4.4 0 0 1-.398-.399v-3.656a.4.4 0 0 1 .398-.398zm6.288 2.584h4.183a.4.4 0 0 1 .398.398v6.002h-.633V17.51h-3.713v5.766h-.633v-6a.4.4 0 0 1 .398-.4zm2.574 2.28h.633v1.54h-.633v-1.54zm-8.627-4.231h3.186v3.187H6.903v-3.187z" fill="#000"></path><path clip-rule="evenodd" d="M6.668 14.293h3.656a.4.4 0 0 1 .398.398v3.656a.4.4 0 0 1-.398.399H6.668a.4.4 0 0 1-.398-.399v-3.656a.4.4 0 0 1 .398-.398zm6.288 2.584h4.183a.4.4 0 0 1 .398.398v6.002h-.633V17.51h-3.713v5.766h-.633v-6a.4.4 0 0 1 .398-.4zm2.574 2.28h.633v1.54h-.633v-1.54zm-8.627-4.231h3.186v3.187H6.903v-3.187z" stroke="#000" stroke-width=".2" mask="url(#b)"></path><mask id="c" maskUnits="userSpaceOnUse" x="7.883" y="1.075" width="8" height="5" fill="#000"><path fill="#fff" d="M7.883 1.075h8v5h-8z"></path><path fill-rule="evenodd" clip-rule="evenodd" d="M11.998 2.075c1.163 0 2.217.466 2.986 1.221v.001c.372.38-.142.778-.447.447a3.618 3.618 0 0 0-2.539-1.036c-.988 0-1.883.394-2.537 1.034-.306.334-.82-.064-.448-.444l-.002-.002a4.248 4.248 0 0 1 2.987-1.221zm-1.281 2.919a1.851 1.851 0 0 1 1.281-.514c.498 0 .95.196 1.283.515.306.334.822-.064.45-.445v-.001a2.482 2.482 0 0 0-1.733-.703c-.674 0-1.285.268-1.734.703h.001c-.371.383.146.78.452.445z"></path></mask><path fill-rule="evenodd" clip-rule="evenodd" d="M11.998 2.075c1.163 0 2.217.466 2.986 1.221v.001c.372.38-.142.778-.447.447a3.618 3.618 0 0 0-2.539-1.036c-.988 0-1.883.394-2.537 1.034-.306.334-.82-.064-.448-.444l-.002-.002a4.248 4.248 0 0 1 2.987-1.221zm-1.281 2.919a1.851 1.851 0 0 1 1.281-.514c.498 0 .95.196 1.283.515.306.334.822-.064.45-.445v-.001a2.482 2.482 0 0 0-1.733-.703c-.674 0-1.285.268-1.734.703h.001c-.371.383.146.78.452.445z" fill="#000"></path><path clip-rule="evenodd" d="M11.998 2.075c1.163 0 2.217.466 2.986 1.221v.001c.372.38-.142.778-.447.447a3.618 3.618 0 0 0-2.539-1.036c-.988 0-1.883.394-2.537 1.034-.306.334-.82-.064-.448-.444l-.002-.002a4.248 4.248 0 0 1 2.987-1.221zm-1.281 2.919a1.851 1.851 0 0 1 1.281-.514c.498 0 .95.196 1.283.515.306.334.822-.064.45-.445v-.001a2.482 2.482 0 0 0-1.733-.703c-.674 0-1.285.268-1.734.703h.001c-.371.383.146.78.452.445z" stroke="#000" stroke-width=".2" mask="url(#c)"></path></svg>