<svg width="24" height="24" fill="none" xmlns="http://www.w3.org/2000/svg"><mask id="a1" maskUnits="userSpaceOnUse" x="2.691" y="7.396" width="18" height="11" fill="#000"><path fill="#fff" d="M2.691 7.396h18v11h-18z"></path><path fill-rule="evenodd" clip-rule="evenodd" d="M7.71 9.694h8.584c-.056-.444-.48-.791-.987-.791H8.692c-.507 0-.926.347-.982.79zm-2.788 5.632h-.707a.525.525 0 0 1-.524-.524v-2.46c0-.288.236-.523.524-.523h.715a2.498 2.498 0 0 1 2.213-2.113c.051-.727.73-1.31 1.553-1.31h6.611c.823 0 1.502.583 1.554 1.31a2.498 2.498 0 0 1 2.213 2.113h.743c.287 0 .52.235.52.523v2.46a.524.524 0 0 1-.52.524h-.735a2.497 2.497 0 0 1-2.469 2.18h-2.668c-.827-.063-1.406-.746-1.638-1.545-.056-.184-.163-.2-.223-.2H11.916c-.056 0-.168.016-.22.2-.236.799-.815 1.482-1.641 1.546H7.386a2.493 2.493 0 0 1-2.464-2.181zm-.02-.563h-.38a.285.285 0 0 1-.283-.284v-1.817c0-.156.127-.284.283-.284h.38v2.385zm14.208 0h.399a.285.285 0 0 0 .284-.284v-1.817a.285.285 0 0 0-.284-.284h-.399v2.385zM7.602 10.26h8.796a2.13 2.13 0 0 1 2.125 2.125v2.433a2.128 2.128 0 0 1-2.125 2.12H14.4c-.85-.043-1.521-.706-1.645-1.541-.032-.22-.192-.204-.252-.204h-1.007c-.06 0-.215-.016-.251.204-.12.835-.795 1.498-1.646 1.541H7.602a2.13 2.13 0 0 1-2.125-2.12v-2.433c0-1.17.959-2.125 2.125-2.125z"></path></mask><path fill-rule="evenodd" clip-rule="evenodd" d="M7.71 9.694h8.584c-.056-.444-.48-.791-.987-.791H8.692c-.507 0-.926.347-.982.79zm-2.788 5.632h-.707a.525.525 0 0 1-.524-.524v-2.46c0-.288.236-.523.524-.523h.715a2.498 2.498 0 0 1 2.213-2.113c.051-.727.73-1.31 1.553-1.31h6.611c.823 0 1.502.583 1.554 1.31a2.498 2.498 0 0 1 2.213 2.113h.743c.287 0 .52.235.52.523v2.46a.524.524 0 0 1-.52.524h-.735a2.497 2.497 0 0 1-2.469 2.18h-2.668c-.827-.063-1.406-.746-1.638-1.545-.056-.184-.163-.2-.223-.2H11.916c-.056 0-.168.016-.22.2-.236.799-.815 1.482-1.641 1.546H7.386a2.493 2.493 0 0 1-2.464-2.181zm-.02-.563h-.38a.285.285 0 0 1-.283-.284v-1.817c0-.156.127-.284.283-.284h.38v2.385zm14.208 0h.399a.285.285 0 0 0 .284-.284v-1.817a.285.285 0 0 0-.284-.284h-.399v2.385zM7.602 10.26h8.796a2.13 2.13 0 0 1 2.125 2.125v2.433a2.128 2.128 0 0 1-2.125 2.12H14.4c-.85-.043-1.521-.706-1.645-1.541-.032-.22-.192-.204-.252-.204h-1.007c-.06 0-.215-.016-.251.204-.12.835-.795 1.498-1.646 1.541H7.602a2.13 2.13 0 0 1-2.125-2.12v-2.433c0-1.17.959-2.125 2.125-2.125z" fill="#000"></path><path clip-rule="evenodd" d="M7.71 9.694h8.584c-.056-.444-.48-.791-.987-.791H8.692c-.507 0-.926.347-.982.79zm-2.788 5.632h-.707a.525.525 0 0 1-.524-.524v-2.46c0-.288.236-.523.524-.523h.715a2.498 2.498 0 0 1 2.213-2.113c.051-.727.73-1.31 1.553-1.31h6.611c.823 0 1.502.583 1.554 1.31a2.498 2.498 0 0 1 2.213 2.113h.743c.287 0 .52.235.52.523v2.46a.524.524 0 0 1-.52.524h-.735a2.497 2.497 0 0 1-2.469 2.18h-2.668c-.827-.063-1.406-.746-1.638-1.545-.056-.184-.163-.2-.223-.2H11.916c-.056 0-.168.016-.22.2-.236.799-.815 1.482-1.641 1.546H7.386a2.493 2.493 0 0 1-2.464-2.181zm-.02-.563h-.38a.285.285 0 0 1-.283-.284v-1.817c0-.156.127-.284.283-.284h.38v2.385zm14.208 0h.399a.285.285 0 0 0 .284-.284v-1.817a.285.285 0 0 0-.284-.284h-.399v2.385zM7.602 10.26h8.796a2.13 2.13 0 0 1 2.125 2.125v2.433a2.128 2.128 0 0 1-2.125 2.12H14.4c-.85-.043-1.521-.706-1.645-1.541-.032-.22-.192-.204-.252-.204h-1.007c-.06 0-.215-.016-.251.204-.12.835-.795 1.498-1.646 1.541H7.602a2.13 2.13 0 0 1-2.125-2.12v-2.433c0-1.17.959-2.125 2.125-2.125z" stroke="#000" stroke-width=".2" mask="url(#a)"></path><mask id="b1" maskUnits="userSpaceOnUse" x="1" y="1.963" width="22" height="22" fill="#000"><path fill="#fff" d="M1 1.963h22v22H1z"></path><path fill-rule="evenodd" clip-rule="evenodd" d="M6.969 2.963h10.062C19.763 2.963 22 5.2 22 7.932v10.062c0 2.732-2.237 4.969-4.969 4.969H6.969C4.237 22.963 2 20.726 2 17.993V7.933c0-2.732 2.237-4.97 4.969-4.97zm.14.563h9.782c2.5 0 4.542 2.045 4.542 4.542v9.786c0 2.5-2.041 4.542-4.542 4.542H7.11a4.555 4.555 0 0 1-4.546-4.542V8.068c0-2.497 2.045-4.542 4.546-4.542z"></path></mask><path fill-rule="evenodd" clip-rule="evenodd" d="M6.969 2.963h10.062C19.763 2.963 22 5.2 22 7.932v10.062c0 2.732-2.237 4.969-4.969 4.969H6.969C4.237 22.963 2 20.726 2 17.993V7.933c0-2.732 2.237-4.97 4.969-4.97zm.14.563h9.782c2.5 0 4.542 2.045 4.542 4.542v9.786c0 2.5-2.041 4.542-4.542 4.542H7.11a4.555 4.555 0 0 1-4.546-4.542V8.068c0-2.497 2.045-4.542 4.546-4.542z" fill="#000"></path><path clip-rule="evenodd" d="M6.969 2.963h10.062C19.763 2.963 22 5.2 22 7.932v10.062c0 2.732-2.237 4.969-4.969 4.969H6.969C4.237 22.963 2 20.726 2 17.993V7.933c0-2.732 2.237-4.97 4.969-4.97zm.14.563h9.782c2.5 0 4.542 2.045 4.542 4.542v9.786c0 2.5-2.041 4.542-4.542 4.542H7.11a4.555 4.555 0 0 1-4.546-4.542V8.068c0-2.497 2.045-4.542 4.546-4.542z" stroke="#000" stroke-width=".2" mask="url(#b)"></path></svg>