<svg class="arrow" width="24" height="24" viewBox="0 0 24 24" fill="none" xmlns="http://www.w3.org/2000/svg">
                                    <path d="M17.2497 12C17.247 12.1988 17.1701 12.3894 17.0341 12.5344L9.5341 20.0344C9.38838 20.154 9.20338 20.2151 9.01509 20.2059C8.8268 20.1966 8.64869 20.1177 8.51539 19.9844C8.38208 19.8511 8.30313 19.673 8.29388 19.4847C8.28464 19.2964 8.34576 19.1114 8.46535 18.9657L15.4404 12L8.46535 5.0344C8.34576 4.88868 8.28464 4.70368 8.29388 4.5154C8.30313 4.32711 8.38208 4.14899 8.51539 4.01569C8.64869 3.88239 8.8268 3.80343 9.01509 3.79418C9.20338 3.78494 9.38838 3.84606 9.5341 3.96565L17.0341 11.4657C17.1701 11.6106 17.247 11.8012 17.2497 12Z" fill="black"></path>
                                </svg>