<svg width="24" height="24" fill="none" xmlns="http://www.w3.org/2000/svg"><mask id="a4" maskUnits="userSpaceOnUse" x="1" y="1.963" width="22" height="22" fill="#000"><path fill="#fff" d="M1 1.963h22v22H1z"></path><path fill-rule="evenodd" clip-rule="evenodd" d="M12 2.963c5.523 0 10 4.477 10 10s-4.477 10-10 10-10-4.477-10-10 4.477-10 10-10zm0 .539c5.212 0 9.436 4.235 9.436 9.46 0 5.225-4.224 9.462-9.436 9.462s-9.436-4.237-9.436-9.461c0-5.226 4.224-9.461 9.436-9.461z"></path></mask><path fill-rule="evenodd" clip-rule="evenodd" d="M12 2.963c5.523 0 10 4.477 10 10s-4.477 10-10 10-10-4.477-10-10 4.477-10 10-10zm0 .539c5.212 0 9.436 4.235 9.436 9.46 0 5.225-4.224 9.462-9.436 9.462s-9.436-4.237-9.436-9.461c0-5.226 4.224-9.461 9.436-9.461z" fill="#000"></path><path clip-rule="evenodd" d="M12 2.963c5.523 0 10 4.477 10 10s-4.477 10-10 10-10-4.477-10-10 4.477-10 10-10zm0 .539c5.212 0 9.436 4.235 9.436 9.46 0 5.225-4.224 9.462-9.436 9.462s-9.436-4.237-9.436-9.461c0-5.226 4.224-9.461 9.436-9.461z" stroke="#000" stroke-width=".2" mask="url(#a)"></path><mask id="b4" maskUnits="userSpaceOnUse" x="4.027" y="3.678" width="16" height="18" fill="#000"><path fill="#fff" d="M4.027 3.678h16v18h-16z"></path><path fill-rule="evenodd" clip-rule="evenodd" d="M9.21 18.105V8.487c0-.372-.563-.372-.563 0v8.243l-3.11-7.133c-.158-.222-.51-.11-.51.162v6.703c0 .373.564.373.564 0v-5.353l3.082 7.09c.138.273.521.195.537-.094zm9.914-9.317c.32.186.039.675-.286.484l-1.21-.704v9.257c0 .372-.563.372-.563 0V8.239L12.28 5.45v7.232h2.458c.373 0 .373.564 0 .564H12.28v7.236c0 .373-.564.373-.564 0V4.948a.282.282 0 0 1 .415-.236l6.992 4.076z"></path></mask><path fill-rule="evenodd" clip-rule="evenodd" d="M9.21 18.105V8.487c0-.372-.563-.372-.563 0v8.243l-3.11-7.133c-.158-.222-.51-.11-.51.162v6.703c0 .373.564.373.564 0v-5.353l3.082 7.09c.138.273.521.195.537-.094zm9.914-9.317c.32.186.039.675-.286.484l-1.21-.704v9.257c0 .372-.563.372-.563 0V8.239L12.28 5.45v7.232h2.458c.373 0 .373.564 0 .564H12.28v7.236c0 .373-.564.373-.564 0V4.948a.282.282 0 0 1 .415-.236l6.992 4.076z" fill="#000"></path><path clip-rule="evenodd" d="M9.21 18.105V8.487c0-.372-.563-.372-.563 0v8.243l-3.11-7.133c-.158-.222-.51-.11-.51.162v6.703c0 .373.564.373.564 0v-5.353l3.082 7.09c.138.273.521.195.537-.094zm9.914-9.317c.32.186.039.675-.286.484l-1.21-.704v9.257c0 .372-.563.372-.563 0V8.239L12.28 5.45v7.232h2.458c.373 0 .373.564 0 .564H12.28v7.236c0 .373-.564.373-.564 0V4.948a.282.282 0 0 1 .415-.236l6.992 4.076z" stroke="#000" stroke-width=".2" mask="url(#b)"></path></svg>