<svg xmlns="http://www.w3.org/2000/svg" viewBox="0 0 64 80" x="0px" y="0px"><title>_</title><g><path d="M40.62012,17.0997A44.5408,44.5408,0,0,1,32,12.15536a44.51923,44.51923,0,0,1-8.62012,4.94434,35.27843,35.27843,0,0,1-8.334,2.1377A36.87166,36.87166,0,0,0,18.291,36.30771,36.79949,36.79949,0,0,0,32,51.9415,36.801,36.801,0,0,0,45.709,36.30869,36.87471,36.87471,0,0,0,48.9541,19.2374,35.27855,35.27855,0,0,1,40.62012,17.0997ZM38.707,37.32919A1,1,0,0,1,37.293,38.74326L32,33.45029l-5.293,5.293A.99992.99992,0,0,1,25.293,37.32919l5.293-5.293-5.293-5.293A.99992.99992,0,0,1,26.707,25.32919L32,30.62216l5.293-5.293A.99992.99992,0,0,1,38.707,26.74326l-5.293,5.293Z"/><path d="M54.91168,14.98605a.636.636,0,0,0-.53558-.59063A45.67141,45.67141,0,0,1,43.5,11.6434,57.38138,57.38138,0,0,1,32.35211,5.15091a.59754.59754,0,0,0-.70422,0A57.38138,57.38138,0,0,1,20.5,11.6434a45.67141,45.67141,0,0,1-10.8761,2.752.636.636,0,0,0-.53558.59063,48.92817,48.92817,0,0,0,4.2323,23.07709A48.18526,48.18526,0,0,0,31.46484,58.80881a1.00124,1.00124,0,0,0,1.07038,0A48.18562,48.18562,0,0,0,50.67938,38.06314,48.92817,48.92817,0,0,0,54.91168,14.98605ZM47.52734,37.13974A38.82131,38.82131,0,0,1,32.78027,53.81161a1.47255,1.47255,0,0,1-1.5625-.001A38.8201,38.8201,0,0,1,16.47266,37.13876a38.8851,38.8851,0,0,1-3.40137-18.4209,1.4905,1.4905,0,0,1,1.25976-1.38964,35.03714,35.03714,0,0,0,8.28907-2.07813,43.61475,43.61475,0,0,0,8.52148-4.9375,1.46754,1.46754,0,0,1,1.71778.001,43.62456,43.62456,0,0,0,8.5205,4.93652,35.092,35.092,0,0,0,8.293,2.0791,1.49008,1.49008,0,0,1,1.25586,1.39063A38.8815,38.8815,0,0,1,47.52734,37.13974Z"/></g><text x="0" y="79" fill="#000000" font-size="5px" font-weight="bold" font-family="'Helvetica Neue', Helvetica, Arial-Unicode, Arial, Sans-serif">Created by Andy Horvath</text><text x="0" y="84" fill="#000000" font-size="5px" font-weight="bold" font-family="'Helvetica Neue', Helvetica, Arial-Unicode, Arial, Sans-serif">from the Noun Project</text></svg>