<svg xmlns="http://www.w3.org/2000/svg" xmlns:xlink="http://www.w3.org/1999/xlink" version="1.1" x="0px" y="0px" viewBox="0 0 100 125" enable-background="new 0 0 100 100" xml:space="preserve"><path d="M18.6,89.3l9.8-24.5c1.3,0.6,2.8,1,4.3,1c0.6,0,1.2-0.1,1.8-0.2l0.2,0l0.1,0.2C36.5,69,40,71,43.8,71c1,0,2.1-0.2,3-0.5  L36.5,96.4c-0.3,0.8-1.4,0.9-1.8,0.1l-4.9-8.6c-0.2-0.3-0.5-0.4-0.8-0.3l-9.2,2.9C19,90.8,18.3,90,18.6,89.3z M65.3,96.8l4.9-8.6  c0.2-0.3,0.5-0.4,0.8-0.3l9.2,2.9c0.8,0.3,1.6-0.5,1.2-1.3l-9.8-24.7c-1.3,0.6-2.8,1-4.4,1c-0.6,0-1.2-0.1-1.8-0.2l-0.2,0l-0.1,0.2  c-1.8,3.3-5.3,5.3-9,5.3c-1,0-2-0.2-3-0.5l10.4,26C63.8,97.4,64.9,97.5,65.3,96.8z M80.4,30.8c1.9,1.7,1.9,4.6,0,6.2l-1.2,1.1  c-1.3,1.2-1.8,3.1-1.1,4.7l0.6,1.5c1,2.3-0.3,4.9-2.7,5.6l-1.6,0.4c-1.7,0.5-2.9,2-3,3.8l-0.1,1.6c-0.1,2.2-2,3.9-4.1,3.9  c-0.2,0-0.5,0-0.7-0.1l-1.6-0.3c-0.2,0-0.5-0.1-0.7-0.1c-1.5,0-2.9,0.8-3.6,2.1l-0.8,1.4c-0.8,1.4-2.2,2.1-3.6,2.1  c-0.8,0-1.7-0.3-2.4-0.8l-1.3-1c-0.7-0.5-1.6-0.8-2.4-0.8c-0.8,0-1.7,0.3-2.4,0.8l-1.3,0.9c-0.7,0.5-1.6,0.8-2.4,0.8  c-1.5,0-2.9-0.8-3.6-2.2l-0.8-1.4c-0.7-1.4-2.1-2.2-3.6-2.2c-0.2,0-0.5,0-0.7,0.1l-1.6,0.3c-0.2,0-0.5,0.1-0.7,0.1  c-2.2,0-4-1.7-4.1-3.9L28.5,54c-0.1-1.8-1.3-3.3-3-3.8l-1.6-0.4c-2.4-0.7-3.6-3.3-2.7-5.6l0.6-1.5c0.7-1.6,0.3-3.5-1.1-4.7l-1.2-1.1  c-1.9-1.7-1.9-4.6,0-6.2l1.2-1.1c1.3-1.2,1.8-3.1,1.1-4.7l-0.6-1.5c-1-2.3,0.3-4.9,2.7-5.6l1.6-0.4c1.7-0.5,2.9-2,3-3.8l0.1-1.6  c0.1-2.2,2-3.9,4.1-3.9c0.2,0,0.5,0,0.7,0.1l1.6,0.3c0.2,0,0.5,0.1,0.7,0.1c1.5,0,2.9-0.8,3.6-2.1l0.8-1.4c0.8-1.4,2.2-2.1,3.6-2.1  c0.8,0,1.7,0.3,2.4,0.8l1.3,1c0.7,0.5,1.6,0.8,2.4,0.8c0.8,0,1.7-0.3,2.4-0.8l1.3-0.9c0.7-0.5,1.6-0.8,2.4-0.8  c1.5,0,2.9,0.8,3.6,2.2l0.8,1.4c0.7,1.4,2.1,2.2,3.6,2.2c0.2,0,0.5,0,0.7-0.1l1.6-0.3c0.2,0,0.5-0.1,0.7-0.1c2.2,0,4,1.7,4.1,3.9  l0.1,1.6c0.1,1.8,1.3,3.3,3,3.8l1.6,0.4c2.4,0.7,3.6,3.3,2.7,5.6L78.1,25c-0.7,1.6-0.3,3.5,1.1,4.7L80.4,30.8z M63.2,28.1l-5-5  L46.7,34.5l-4.8-4.9l-5,5l4.8,4.9l5,5l5-5L63.2,28.1z"/><text x="0" y="115" fill="#000000" font-size="5px" font-weight="bold" font-family="'Helvetica Neue', Helvetica, Arial-Unicode, Arial, Sans-serif">Created by Gregor Cresnar</text><text x="0" y="120" fill="#000000" font-size="5px" font-weight="bold" font-family="'Helvetica Neue', Helvetica, Arial-Unicode, Arial, Sans-serif">from the Noun Project</text></svg>