<svg width="24" height="24" fill="none" xmlns="http://www.w3.org/2000/svg"><mask id="a5" maskUnits="userSpaceOnUse" x="1" y="1.963" width="22" height="22" fill="#000"><path fill="#fff" d="M1 1.963h22v22H1z"></path><path fill-rule="evenodd" clip-rule="evenodd" d="M12.001 2.963C17.524 2.963 22 7.44 22 12.964a9.997 9.997 0 0 1-9.999 9.999C6.478 22.963 2 18.487 2 12.964 2 7.441 6.478 2.963 12.001 2.963zm0 .539c5.212 0 9.438 4.237 9.438 9.462 0 5.226-4.226 9.463-9.438 9.463-5.211 0-9.437-4.237-9.437-9.463 0-5.225 4.226-9.462 9.437-9.462z"></path></mask><path fill-rule="evenodd" clip-rule="evenodd" d="M12.001 2.963C17.524 2.963 22 7.44 22 12.964a9.997 9.997 0 0 1-9.999 9.999C6.478 22.963 2 18.487 2 12.964 2 7.441 6.478 2.963 12.001 2.963zm0 .539c5.212 0 9.438 4.237 9.438 9.462 0 5.226-4.226 9.463-9.438 9.463-5.211 0-9.437-4.237-9.437-9.463 0-5.225 4.226-9.462 9.437-9.462z" fill="#000"></path> <path clip-rule="evenodd" d="M12.001 2.963C17.524 2.963 22 7.44 22 12.964a9.997 9.997 0 0 1-9.999 9.999C6.478 22.963 2 18.487 2 12.964 2 7.441 6.478 2.963 12.001 2.963zm0 .539c5.212 0 9.438 4.237 9.438 9.462 0 5.226-4.226 9.463-9.438 9.463-5.211 0-9.437-4.237-9.437-9.463 0-5.225 4.226-9.462 9.437-9.462z" stroke="#000" stroke-width=".2" mask="url(#a)"></path> <mask id="b5" maskUnits="userSpaceOnUse" x="4.129" y="6.897" width="15" height="12" fill="#000"> <path fill="#fff" d="M4.129 6.897h15v12h-15z"></path> <path fill-rule="evenodd" clip-rule="evenodd" d="M7.097 12.148c0-.5.408-.909.908-.909h.303v-.303c0-.5.411-.911.911-.911s.909.411.909.911v.303h.302c.5 0 .912.408.912.909 0 .5-.412.91-.912.91h-.303v.304a.91.91 0 0 1-1.82 0v-.303h-.302a.913.913 0 0 1-.908-.911zm6.317 2.722c2.037 0 1.736 2.864 3.49 2.581 1.202-.197 1.308-1.542 1.36-2.473.081-1.347-.202-3.336-.833-4.522-.78-1.476-2.528-2.398-4.192-1.84-.17.056-.497.162-.683.187a5.254 5.254 0 0 1-1.106 0c-.189-.025-.514-.131-.683-.187-1.667-.558-3.415.364-4.196 1.84-.627 1.186-.91 3.175-.833 4.523.056.93.158 2.275 1.361 2.472 1.753.283 1.453-2.58 3.492-2.58h2.823zm-1.411-6.592c.547.008.8-.212 1.711-.342 1.095-.156 1.99.178 2.706.614 2.161 1.322 2.731 4.975 2.342 7.376-.158.967-.567 1.653-1.35 1.961-1.106.434-1.909-.194-2.314-.803-.456-.683-.74-1.628-1.723-1.661a41.13 41.13 0 0 0-2.747 0c-.984.033-1.267.978-1.723 1.661-.403.609-1.206 1.237-2.314.803-.784-.308-1.192-.994-1.347-1.961-.392-2.4.18-6.054 2.339-7.376.716-.436 1.614-.77 2.708-.614.912.13 1.165.35 1.712.342zm2.925 4.37a.816.816 0 1 1-.003 1.631.816.816 0 0 1 .003-1.631zm-2.13-.498a.815.815 0 1 1 1.63 0 .816.816 0 1 1-1.63 0zm.469 0c0-.191.155-.347.344-.347a.345.345 0 1 1 0 .692.344.344 0 0 1-.344-.345zm1.661-2.13c.45 0 .814.363.814.816 0 .45-.364.814-.814.814a.815.815 0 1 1 0-1.63zm0 .469c.192 0 .345.155.345.347a.344.344 0 0 1-.345.345.347.347 0 0 1-.347-.345c0-.191.155-.347.347-.347zm.497 1.661a.816.816 0 1 1 1.633 0 .816.816 0 0 1-1.633 0zm.47 0a.347.347 0 0 1 .695 0 .345.345 0 0 1-.348.345.345.345 0 0 1-.347-.345zm-.967.967c.192 0 .345.156.345.347a.345.345 0 0 1-.345.348.347.347 0 0 1 0-.695zm-7.35-.97c0-.188.155-.344.346-.344h.948v-.95a.347.347 0 0 1 .694 0v.95h.948c.189 0 .347.156.347.345a.35.35 0 0 1-.347.347h-.948v.947a.347.347 0 0 1-.695 0v-.947h-.947a.347.347 0 0 1-.347-.347z"></path> </mask> <path fill-rule="evenodd" clip-rule="evenodd" d="M7.097 12.148c0-.5.408-.909.908-.909h.303v-.303c0-.5.411-.911.911-.911s.909.411.909.911v.303h.302c.5 0 .912.408.912.909 0 .5-.412.91-.912.91h-.303v.304a.91.91 0 0 1-1.82 0v-.303h-.302a.913.913 0 0 1-.908-.911zm6.317 2.722c2.037 0 1.736 2.864 3.49 2.581 1.202-.197 1.308-1.542 1.36-2.473.081-1.347-.202-3.336-.833-4.522-.78-1.476-2.528-2.398-4.192-1.84-.17.056-.497.162-.683.187a5.254 5.254 0 0 1-1.106 0c-.189-.025-.514-.131-.683-.187-1.667-.558-3.415.364-4.196 1.84-.627 1.186-.91 3.175-.833 4.523.056.93.158 2.275 1.361 2.472 1.753.283 1.453-2.58 3.492-2.58h2.823zm-1.411-6.592c.547.008.8-.212 1.711-.342 1.095-.156 1.99.178 2.706.614 2.161 1.322 2.731 4.975 2.342 7.376-.158.967-.567 1.653-1.35 1.961-1.106.434-1.909-.194-2.314-.803-.456-.683-.74-1.628-1.723-1.661a41.13 41.13 0 0 0-2.747 0c-.984.033-1.267.978-1.723 1.661-.403.609-1.206 1.237-2.314.803-.784-.308-1.192-.994-1.347-1.961-.392-2.4.18-6.054 2.339-7.376.716-.436 1.614-.77 2.708-.614.912.13 1.165.35 1.712.342zm2.925 4.37a.816.816 0 1 1-.003 1.631.816.816 0 0 1 .003-1.631zm-2.13-.498a.815.815 0 1 1 1.63 0 .816.816 0 1 1-1.63 0zm.469 0c0-.191.155-.347.344-.347a.345.345 0 1 1 0 .692.344.344 0 0 1-.344-.345zm1.661-2.13c.45 0 .814.363.814.816 0 .45-.364.814-.814.814a.815.815 0 1 1 0-1.63zm0 .469c.192 0 .345.155.345.347a.344.344 0 0 1-.345.345.347.347 0 0 1-.347-.345c0-.191.155-.347.347-.347zm.497 1.661a.816.816 0 1 1 1.633 0 .816.816 0 0 1-1.633 0zm.47 0a.347.347 0 0 1 .695 0 .345.345 0 0 1-.348.345.345.345 0 0 1-.347-.345zm-.967.967c.192 0 .345.156.345.347a.345.345 0 0 1-.345.348.347.347 0 0 1 0-.695zm-7.35-.97c0-.188.155-.344.346-.344h.948v-.95a.347.347 0 0 1 .694 0v.95h.948c.189 0 .347.156.347.345a.35.35 0 0 1-.347.347h-.948v.947a.347.347 0 0 1-.695 0v-.947h-.947a.347.347 0 0 1-.347-.347z" fill="#000"></path> <path clip-rule="evenodd" d="M7.097 12.148c0-.5.408-.909.908-.909h.303v-.303c0-.5.411-.911.911-.911s.909.411.909.911v.303h.302c.5 0 .912.408.912.909 0 .5-.412.91-.912.91h-.303v.304a.91.91 0 0 1-1.82 0v-.303h-.302a.913.913 0 0 1-.908-.911zm6.317 2.722c2.037 0 1.736 2.864 3.49 2.581 1.202-.197 1.308-1.542 1.36-2.473.081-1.347-.202-3.336-.833-4.522-.78-1.476-2.528-2.398-4.192-1.84-.17.056-.497.162-.683.187a5.254 5.254 0 0 1-1.106 0c-.189-.025-.514-.131-.683-.187-1.667-.558-3.415.364-4.196 1.84-.627 1.186-.91 3.175-.833 4.523.056.93.158 2.275 1.361 2.472 1.753.283 1.453-2.58 3.492-2.58h2.823zm-1.411-6.592c.547.008.8-.212 1.711-.342 1.095-.156 1.99.178 2.706.614 2.161 1.322 2.731 4.975 2.342 7.376-.158.967-.567 1.653-1.35 1.961-1.106.434-1.909-.194-2.314-.803-.456-.683-.74-1.628-1.723-1.661a41.13 41.13 0 0 0-2.747 0c-.984.033-1.267.978-1.723 1.661-.403.609-1.206 1.237-2.314.803-.784-.308-1.192-.994-1.347-1.961-.392-2.4.18-6.054 2.339-7.376.716-.436 1.614-.77 2.708-.614.912.13 1.165.35 1.712.342zm2.925 4.37a.816.816 0 1 1-.003 1.631.816.816 0 0 1 .003-1.631zm-2.13-.498a.815.815 0 1 1 1.63 0 .816.816 0 1 1-1.63 0zm.469 0c0-.191.155-.347.344-.347a.345.345 0 1 1 0 .692.344.344 0 0 1-.344-.345zm1.661-2.13c.45 0 .814.363.814.816 0 .45-.364.814-.814.814a.815.815 0 1 1 0-1.63zm0 .469c.192 0 .345.155.345.347a.344.344 0 0 1-.345.345.347.347 0 0 1-.347-.345c0-.191.155-.347.347-.347zm.497 1.661a.816.816 0 1 1 1.633 0 .816.816 0 0 1-1.633 0zm.47 0a.347.347 0 0 1 .695 0 .345.345 0 0 1-.348.345.345.345 0 0 1-.347-.345zm-.967.967c.192 0 .345.156.345.347a.345.345 0 0 1-.345.348.347.347 0 0 1 0-.695zm-7.35-.97c0-.188.155-.344.346-.344h.948v-.95a.347.347 0 0 1 .694 0v.95h.948c.189 0 .347.156.347.345a.35.35 0 0 1-.347.347h-.948v.947a.347.347 0 0 1-.695 0v-.947h-.947a.347.347 0 0 1-.347-.347z" stroke="#000" stroke-width=".2" mask="url(#b)"></path> </svg>