<svg width="24" height="24" fill="none" xmlns="http://www.w3.org/2000/svg"><mask id="a7" maskUnits="userSpaceOnUse" x="1" y="1.963" width="22" height="22" fill="#000"><path fill="#fff" d="M1 1.963h22v22H1z"></path><path fill-rule="evenodd" clip-rule="evenodd" d="M12 2.963c5.523 0 10 4.477 10 10 0 5.522-4.477 10-10 10s-10-4.478-10-10c0-5.523 4.477-10 10-10zm0 .54c5.212 0 9.435 4.235 9.435 9.46 0 5.225-4.223 9.46-9.435 9.46-5.212 0-9.435-4.235-9.435-9.46 0-5.225 4.223-9.46 9.435-9.46z"></path></mask><path fill-rule="evenodd" clip-rule="evenodd" d="M12 2.963c5.523 0 10 4.477 10 10 0 5.522-4.477 10-10 10s-10-4.478-10-10c0-5.523 4.477-10 10-10zm0 .54c5.212 0 9.435 4.235 9.435 9.46 0 5.225-4.223 9.46-9.435 9.46-5.212 0-9.435-4.235-9.435-9.46 0-5.225 4.223-9.46 9.435-9.46z" fill="#000"></path><path clip-rule="evenodd" d="M12 2.963c5.523 0 10 4.477 10 10 0 5.522-4.477 10-10 10s-10-4.478-10-10c0-5.523 4.477-10 10-10zm0 .54c5.212 0 9.435 4.235 9.435 9.46 0 5.225-4.223 9.46-9.435 9.46-5.212 0-9.435-4.235-9.435-9.46 0-5.225 4.223-9.46 9.435-9.46z" stroke="#000" stroke-width=".2" mask="url(#a)"></path><mask id="b7" maskUnits="userSpaceOnUse" x="5.211" y="8.055" width="13" height="11" fill="#000"><path fill="#fff" d="M5.211 8.055h13v11h-13z"></path><path d="M7.35 12.538h.569l.747-2.617h.013l.73 2.617h.57l1.139-3.483h-.646l-.773 2.506h-.013l-.697-2.506h-.646l-.7 2.515H7.63l-.77-2.515h-.65l1.14 3.483zm4.575 0h2.362v-.53h-1.755v-.931h1.33v-.531h-1.33v-.96h1.648v-.531h-2.255v3.483zm3.266 0h1.423c.79 0 1.177-.403 1.177-.956 0-.48-.293-.786-.713-.883v-.005c.37-.14.53-.467.53-.79 0-.569-.428-.85-1.168-.85h-1.249v3.484zm.612-2.039v-.913l.574-.005c.42 0 .611.183.611.455 0 .331-.25.463-.59.463h-.595zm0 1.508v-.998h.637c.476 0 .714.2.714.51 0 .327-.238.488-.616.488h-.735zM9.588 18.38c.663 0 1.151-.378 1.151-.951 0-.395-.22-.684-.556-.829v-.017a.832.832 0 0 0 .459-.756c0-.565-.489-.892-1.096-.892-.506 0-.888.242-1.054.574l.467.246c.11-.17.285-.293.574-.293.285 0 .518.187.518.454 0 .238-.14.446-.505.446h-.319v.48h.263c.434 0 .655.243.655.506 0 .306-.272.501-.6.501-.348 0-.569-.153-.675-.403l-.505.216c.17.412.616.718 1.223.718zm2.264 0a.37.37 0 0 0 .378-.365c0-.2-.17-.365-.378-.365-.212 0-.386.165-.386.365 0 .204.174.365.386.365zm2.405 0c.84 0 1.334-.705 1.334-1.72 0-1.1-.548-1.725-1.334-1.725-.833 0-1.334.701-1.334 1.725 0 1.091.552 1.72 1.334 1.72zm0-.53c-.442 0-.735-.447-.735-1.19 0-.756.28-1.198.735-1.198.454 0 .739.442.739 1.198 0 .747-.272 1.19-.74 1.19z"></path></mask><path d="M7.35 12.538h.569l.747-2.617h.013l.73 2.617h.57l1.139-3.483h-.646l-.773 2.506h-.013l-.697-2.506h-.646l-.7 2.515H7.63l-.77-2.515h-.65l1.14 3.483zm4.575 0h2.362v-.53h-1.755v-.931h1.33v-.531h-1.33v-.96h1.648v-.531h-2.255v3.483zm3.266 0h1.423c.79 0 1.177-.403 1.177-.956 0-.48-.293-.786-.713-.883v-.005c.37-.14.53-.467.53-.79 0-.569-.428-.85-1.168-.85h-1.249v3.484zm.612-2.039v-.913l.574-.005c.42 0 .611.183.611.455 0 .331-.25.463-.59.463h-.595zm0 1.508v-.998h.637c.476 0 .714.2.714.51 0 .327-.238.488-.616.488h-.735zM9.588 18.38c.663 0 1.151-.378 1.151-.951 0-.395-.22-.684-.556-.829v-.017a.832.832 0 0 0 .459-.756c0-.565-.489-.892-1.096-.892-.506 0-.888.242-1.054.574l.467.246c.11-.17.285-.293.574-.293.285 0 .518.187.518.454 0 .238-.14.446-.505.446h-.319v.48h.263c.434 0 .655.243.655.506 0 .306-.272.501-.6.501-.348 0-.569-.153-.675-.403l-.505.216c.17.412.616.718 1.223.718zm2.264 0a.37.37 0 0 0 .378-.365c0-.2-.17-.365-.378-.365-.212 0-.386.165-.386.365 0 .204.174.365.386.365zm2.405 0c.84 0 1.334-.705 1.334-1.72 0-1.1-.548-1.725-1.334-1.725-.833 0-1.334.701-1.334 1.725 0 1.091.552 1.72 1.334 1.72zm0-.53c-.442 0-.735-.447-.735-1.19 0-.756.28-1.198.735-1.198.454 0 .739.442.739 1.198 0 .747-.272 1.19-.74 1.19z" fill="#000"></path><path d="M7.35 12.538h.569l.747-2.617h.013l.73 2.617h.57l1.139-3.483h-.646l-.773 2.506h-.013l-.697-2.506h-.646l-.7 2.515H7.63l-.77-2.515h-.65l1.14 3.483zm4.575 0h2.362v-.53h-1.755v-.931h1.33v-.531h-1.33v-.96h1.648v-.531h-2.255v3.483zm3.266 0h1.423c.79 0 1.177-.403 1.177-.956 0-.48-.293-.786-.713-.883v-.005c.37-.14.53-.467.53-.79 0-.569-.428-.85-1.168-.85h-1.249v3.484zm.612-2.039v-.913l.574-.005c.42 0 .611.183.611.455 0 .331-.25.463-.59.463h-.595zm0 1.508v-.998h.637c.476 0 .714.2.714.51 0 .327-.238.488-.616.488h-.735zM9.588 18.38c.663 0 1.151-.378 1.151-.951 0-.395-.22-.684-.556-.829v-.017a.832.832 0 0 0 .459-.756c0-.565-.489-.892-1.096-.892-.506 0-.888.242-1.054.574l.467.246c.11-.17.285-.293.574-.293.285 0 .518.187.518.454 0 .238-.14.446-.505.446h-.319v.48h.263c.434 0 .655.243.655.506 0 .306-.272.501-.6.501-.348 0-.569-.153-.675-.403l-.505.216c.17.412.616.718 1.223.718zm2.264 0a.37.37 0 0 0 .378-.365c0-.2-.17-.365-.378-.365-.212 0-.386.165-.386.365 0 .204.174.365.386.365zm2.405 0c.84 0 1.334-.705 1.334-1.72 0-1.1-.548-1.725-1.334-1.725-.833 0-1.334.701-1.334 1.725 0 1.091.552 1.72 1.334 1.72zm0-.53c-.442 0-.735-.447-.735-1.19 0-.756.28-1.198.735-1.198.454 0 .739.442.739 1.198 0 .747-.272 1.19-.74 1.19z" stroke="#000" stroke-width=".2" mask="url(#b)"></path></svg>